<svg xmlns="http://www.w3.org/2000/svg" xmlns:xlink="http://www.w3.org/1999/xlink" id="Layer_2_00000100356713936934175440000013880526390347733400_" x="0px" y="0px" viewBox="0 0 570.7 570.7" style="enable-background:new 0 0 570.7 570.7;" xml:space="preserve"><style type="text/css">	.st0{fill:#84332E;}	.st1{fill:#FFFFFF;}</style><g id="Capa_2">	<g>		<path class="st0" d="M570.2,38.5C570.2,17.2,553,0,531.8,0H316.3l-30.9,31.1L254.4,0h-216C17.2,0,0,17.2,0,38.5v216.1l30.6,30.7   L0,316.1v216.1c0,21.3,17.2,38.5,38.4,38.5h217.5l29.4-29.5l29.4,29.5h217.5c21.2,0,38.4-17.2,38.4-38.5V316.5l-31-31.1l31-31.1   L570.2,38.5L570.2,38.5z"></path>		<path class="st1" d="M455.4,421c-1.8,3.3-4.6,4.3-8.2,4.2c-6.7-0.1-13.5,0-20.2,0c-5.9,0-8-2.1-8-8c0-30.1,0-60.2,0-90.3v-4.2   H153.1c0,1.3,0,2.6,0,3.9c0,30,0,60,0,89.9c0,6.7-1.9,8.6-8.6,8.6c-6.7,0-13.4,0.1-20.2,0c-5.5-0.1-7.5-2.2-7.5-7.7   c0-81.9,0-163.8,0-245.7c0-5.5,2-7.6,7.5-7.7c7.2-0.1,14.3-0.1,21.5,0c5.2,0.1,7.3,2.3,7.4,7.6c0,6.8,0,13.7,0,20.7h265.9   c0-5.7,0-11.4,0-17c0-10.5,0.9-11.3,11.3-11.3c5.6,0,11.2,0.1,16.9,0c3.6-0.1,6.5,0.9,8.2,4.2L455.4,421L455.4,421z M242.5,299.9   c12.7,0,24.9-0.1,37.1,0.1c2.4,0,3.5-0.9,4.4-2.9c12.9-26.2,25.9-52.4,38.8-78.7c0.4-0.9,0.7-1.8,1.2-3c-12.6,0-24.9,0.1-37.1-0.1   c-2.4,0-3.4,0.9-4.4,2.9c-12.9,26.1-25.8,52.3-38.7,78.4C243.5,297.5,243.2,298.4,242.5,299.9L242.5,299.9z M416.4,215.4   c-8.5,0-16.6,0.1-24.6-0.1c-2.4-0.1-3.5,0.8-4.5,2.8c-12.8,26.1-25.8,52.2-38.7,78.4c-0.5,1-0.9,1.9-1.5,3.3c1.4,0,2.4,0,3.4,0   c11.2,0,22.5-0.1,33.7,0.1c2.3,0,3.5-0.7,4.5-2.8c8.8-18,17.7-35.9,26.5-53.9c0.4-0.9,1.1-1.8,1.1-2.7   C416.4,232.3,416.4,224.1,416.4,215.4L416.4,215.4z M219.6,215.4c-13.2,0-25.9-0.1-38.6,0.1c-1,0-2.3,1.5-2.8,2.5   c-5.8,11.5-10.9,23.3-17.3,34.5c-6.1,10.7-9.1,21.7-7.8,33.9c0.4,4.3,0.1,8.7,0.1,13.4c7.2,0,14.1-0.1,20.9,0.1   c2.9,0.1,4.4-0.8,5.7-3.5c12.6-25.8,25.4-51.5,38.1-77.2C218.4,218.1,218.8,217,219.6,215.4L219.6,215.4z"></path>	</g></g></svg>