<svg xmlns="http://www.w3.org/2000/svg" xmlns:xlink="http://www.w3.org/1999/xlink" id="Layer_2_00000150821349715785502340000011119275597177949614_" x="0px" y="0px" viewBox="0 0 564.7 564.7" style="enable-background:new 0 0 564.7 564.7;" xml:space="preserve"><style type="text/css">	.st0{fill:#84332E;}	.st1{fill:#FFFFFF;}	.st2{fill-rule:evenodd;clip-rule:evenodd;fill:#FFFFFF;}</style><g id="Capa_2">	<g>		<path class="st0" d="M564.7,254.4l-0.5-211.5C564.2,19.2,545,0,521.4,0H310l-27.7,27.8L254.6,0H42.8C19.2,0,0,19.2,0,42.9v211.9   l27.4,27.5L0,309.8v211.9c0,23.7,19.2,42.9,42.8,42.9h213.3l26.2-26.3l26.2,26.3h213.3h0c23.6,0,42.8-19.2,42.8-42.9V310.2   l-27.8-27.9L564.7,254.4z M251.5,553.6h-0.8l30.8-31l0.4,0.4L251.5,553.6z"></path>		<rect x="385.1" y="131" class="st1" width="48" height="218.8"></rect>		<rect x="131.9" y="384.9" class="st1" width="301.2" height="48.1"></rect>		<path class="st2" d="M304.8,131H175.5c-23.2,1.8-41.8,20.4-43.6,43.7v175.1h47.9v-171h36.7v171h47.7v-171h36.6v171h47.7V174.9   C346.7,151.5,328.2,132.8,304.8,131"></path>	</g></g></svg>