<svg xmlns="http://www.w3.org/2000/svg" xmlns:xlink="http://www.w3.org/1999/xlink" id="Layer_2_00000091000025230473061730000007284693471338612141_" x="0px" y="0px" viewBox="0 0 564.7 564.7" style="enable-background:new 0 0 564.7 564.7;" xml:space="preserve"><style type="text/css">	.st0{fill:#84332E;}	.st1{fill:#FFFFFF;}</style><g id="Capa_2">	<g>		<path class="st0" d="M521.9,564.7H308.6l-26.2-26.3l-26.2,26.3H42.8C19.2,564.7,0,545.4,0,521.8v-212l27.4-27.5L0,254.8V42.9   C0,19.2,19.2,0,42.8,0h211.8l27.7,27.8L310,0h211.4c23.6,0,42.8,19.2,42.8,42.9l0.5,211.5l-27.8,27.9l27.8,27.9v211.5   C564.7,545.4,545.5,564.7,521.9,564.7L521.9,564.7z"></path>		<path class="st1" d="M94.1,278.4C94.1,382,178,466,281.6,466s187.5-84,187.5-187.5S385.1,91,281.6,91S94.1,174.8,94.1,278.4"></path>		<polygon class="st0" points="422.2,381 141.9,381 281.6,127.7   "></polygon>	</g></g></svg>