<svg xmlns="http://www.w3.org/2000/svg" xmlns:xlink="http://www.w3.org/1999/xlink" id="Layer_2_00000110449158637667430700000016001690296188286620_" x="0px" y="0px" viewBox="0 0 570.7 570.7" style="enable-background:new 0 0 570.7 570.7;" xml:space="preserve"><style type="text/css">	.st0{fill:#84332E;}	.st1{fill:#FFFFFF;}</style><g id="Capa_2">	<g>		<path class="st0" d="M570.2,38.5C570.2,17.2,553,0,531.8,0H316.3l-30.9,31.1L254.4,0h-216C17.2,0,0,17.2,0,38.5v216.1l30.6,30.7   L0,316.1v216.1c0,21.3,17.2,38.5,38.4,38.5h217.5l29.4-29.5l29.4,29.5h217.5c21.2,0,38.4-17.2,38.4-38.5V316.5l-31-31.1l31-31.1   L570.2,38.5L570.2,38.5z"></path>		<path class="st1" d="M199.4,156.4v119.3c3.5-0.7,7.1-1.1,10.8-1.1h10.8v-21.5v-96.8c0-5.9-4.8-10.8-10.8-10.8   S199.4,150.4,199.4,156.4z M210.1,306.9c-11.9,0-21.5,9.6-21.5,21.5l0,0v16.1c0,44.5,36.1,80.6,80.6,80.6h32.2   c35.3,0,65.2-22.6,76.2-54.2c-2.1,0.3-4.2,0.5-6.3,0.5c-13.4,0-25.5-6.2-33.4-15.9c-6,3.3-13,5.1-20.4,5.1   c-10.1,0-19.5-3.6-26.9-9.4c-7.4,5.9-16.7,9.4-26.9,9.4H237c-8.9,0-16.1-7.2-16.1-16.1s7.2-16.1,16.1-16.1h26.9   c5.9,0,10.8-4.8,10.8-10.8s-4.8-10.8-10.8-10.8H237H210.1z M156.4,328.4L156.4,328.4c0-12.1,4-23.2,10.8-32.2V156.4   c0-23.7,19.3-43,43-43s43,19.3,43,43v55.1c3.4-0.9,7.1-1.3,10.8-1.3c17,0,31.7,9.9,38.7,24.2c4.7-1.7,9.7-2.7,15-2.7   c13.4,0,25.5,6.2,33.4,15.9c6-3.3,13-5.1,20.4-5.1c23.7,0,43,19.3,43,43v43v16.1c0,62.4-50.5,112.9-112.9,112.9h-32.2   c-62.4,0-112.9-50.5-112.9-112.9V328.4z M382.1,285.4c0-5.9-4.8-10.8-10.8-10.8s-10.8,4.8-10.8,10.8v32.2v10.8   c0,5.9,4.8,10.8,10.8,10.8s10.8-4.8,10.8-10.8V285.4z M263.9,274.6c3.7,0,7.3,0.5,10.8,1.3v-1.3v-21.5c0-5.9-4.8-10.8-10.8-10.8   s-10.8,4.8-10.8,10.8v21.5H263.9z M306.9,290.7v26.9c0,5.9,4.8,10.8,10.8,10.8s10.8-4.8,10.8-10.8v-32.2v-10.8   c0-5.9-4.8-10.8-10.8-10.8s-10.8,4.8-10.8,10.8V290.7z"></path>	</g></g></svg>