<svg xmlns="http://www.w3.org/2000/svg" id="Layer_2" data-name="Layer 2" viewBox="0 0 570.71 570.71"><defs><style>      .cls-1 {        fill: #84332e;      }      .cls-1, .cls-2 {        stroke-width: 0px;      }      .cls-2 {        fill: #fff;      }    </style></defs><g id="Capa_2" data-name="Capa 2"><g><path class="cls-1" d="m570.24,38.53c0-21.28-17.2-38.53-38.42-38.53h-215.52l-30.94,31.08L254.42,0H38.42C17.2,0,0,17.25,0,38.53v216.12l30.57,30.7L0,316.06v216.12c0,21.28,17.2,38.53,38.42,38.53h217.53l29.4-29.54,29.4,29.54h217.53c21.22,0,38.43-17.25,38.43-38.53v-215.7l-30.98-31.12,30.98-31.12-.47-215.7Z"></path><path class="cls-2" d="m124.95,512.4c-9.06-4.11-11.66-11.27-11.63-20.94.26-71.39.14-142.78.14-214.16,0-1.77,0-3.54,0-5.63-4.08.49-5.94,2.43-5.93,6.21,0,10.47-.01,20.95-.03,31.42-.03,18.19-.03,36.38-.16,54.57-.02,2.44-.29,5-1.11,7.27-1.91,5.31-7.93,8.73-13.16,7.89-6.3-1.01-10.94-6.11-11.04-12.52-.13-7.72-.03-15.43-.02-23.15.03-21.09.45-42.18,0-63.25-.46-21.76,15.84-35.33,33.92-33.99,3.7.27,7.44.17,11.16,0,2.4-.11,3.05.84,3.79,3.1,2.61,7.92,5.62,15.7,8.66,23.47.55,1.4,1.94,2.47,2.58,3.25.35-3.75.68-7.62,1.09-11.49.36-3.37,2.99-2.58,5.07-2.57,2.2,0,5.01-.88,5.44,2.66.45,3.73.74,7.48,1.13,11.59,1.5-2.26,3.59-4.49,4.59-7.13,2.53-6.65,4.51-13.52,6.87-20.24.36-1.01,1.6-2.53,2.33-2.47,6.54.47,13.34.31,19.54,2.13,11.63,3.41,18.1,12.34,21.65,23.62,2.89,9.17,5.94,18.29,8.79,27.47.68,2.18,1.71,2.95,4.05,2.99,10.47.15,20.94.47,31.4.86,7.61.28,12.92,5.24,13.2,12.07.3,7.25-4.98,13.37-12.28,13.24-15.43-.26-30.85-.82-46.26-1.6-5.32-.27-8.67-3.82-10.33-8.82-4.21-12.63-8.37-25.27-12.58-37.91-.51-1.52-1.12-3.01-1.68-4.51-.35.03-.7.05-1.05.08,0,1.54,0,3.08,0,4.62,0,70.84-.09,141.67.11,212.51.03,9.39-2.96,16-11.97,19.37h-7.44c-8.66-3.45-11.78-9.79-11.7-19.08.31-38.86.13-77.73.13-116.59v-4.89h-7.48v5.22c0,38.59-.18,77.18.13,115.76.08,9.36-2.89,15.97-11.68,19.59h-8.27Z"></path><path class="cls-2" d="m414.44,309.16h-6.18c0,1.84,0,3.56,0,5.28,0,37.75.01,75.5,0,113.26,0,9.1-3.66,14.68-10.93,16.96-9.12,2.86-18.62-3.58-19.28-13.1-.1-1.51-.04-3.03-.04-4.55,0-69.44,0-138.88,0-208.33v-4.97c-3.96-.17-5.24,1.86-5.25,5.1-.02,5.37-.01,10.75-.01,16.12,0,24.53.02,49.05-.01,73.58-.01,8.48-4.69,14.12-11.94,14.64-7.36.53-13.08-4.54-13.45-11.94-.03-.55-.04-1.1-.04-1.65,0-30.31-.07-60.62.03-90.94.05-15.01,9.17-26.51,23.53-29.85,2.77-.65,5.73-.67,8.61-.69,14.74-.06,29.49-.11,44.23.04,2.8.03,4.05-.88,5.11-3.42,12.16-29.01,24.48-57.95,36.7-86.94,2.1-4.98,5.52-8.24,11-8.69,9.98-.82,16.57,8.58,12.57,18.08-6.71,15.96-13.63,31.83-20.48,47.72-7.29,16.91-14.67,33.78-21.84,50.73-1.08,2.56-1.72,5.53-1.72,8.31-.09,71.65-.07,143.29-.08,214.94,0,9.05-5.4,15.59-13.51,16.46-9.09.97-16.88-6.06-16.97-15.58-.12-13.5-.03-27-.03-40.51,0-25.08,0-50.15,0-75.23v-4.85Z"></path><path class="cls-2" d="m357.81,184.5c-.39.56-.54.98-.85,1.19-12.61,8.52-18.13,20.55-17.88,35.57.14,8.82-.14,17.64.08,26.46.08,3.04-1.22,4.55-3.67,5.69-6.27,2.93-13.37.51-16.82-6.06-4.92-9.37-9.63-18.86-14.5-28.26-.82-1.58-1.97-3-2.97-4.49l-1.17.36c0,1.71,0,3.42,0,5.13.04,69.32.07,138.64.1,207.96,0,8.54-3.96,14.44-10.99,16.52-9.87,2.92-19.42-4.24-19.44-14.76-.06-30.46,0-60.91-.04-91.37,0-4.53.56-8.52,3.04-12.77,7.69-13.17-2-29.59-17.28-29.96-7.29-.18-14.58-.03-22.55-.03v-81.57c-4.5.51-5.33,3.19-5.33,6.67.03,23.15.02,46.3.02,69.46,0,1.45,0,2.9,0,4.35-.37.13-.74.27-1.11.4-.59-.85-1.42-1.62-1.74-2.56-2.39-7.02-4.94-14-6.95-21.13-2.49-8.84-6.67-16.51-13.49-22.74-.99-.9-1.92-2.47-1.94-3.75-.14-8.95-.43-17.93.07-26.87.96-17.26,13.18-29.09,30.61-29.36,21.77-.33,43.55-.3,65.32,0,13.56.19,23.03,7.23,29.13,20.29.75-1.92,1.27-3.07,1.66-4.26,1.86-5.6,3.7-11.21,5.53-16.82.01-.04.03-.09.04-.13,1.96-5.84,8.47-8.84,14.3-6.84,3.78,1.29,7.67,3.34,8.82,3.7Z"></path><path class="cls-2" d="m174.51,188.74c1.68,9.8-5.05,13.5-12.42,16.23-11.55,4.28-22.94,3.61-33.78-2.5-4.54-2.56-7.83-5.99-7.46-11.83.06-.95-1.06-2.54-2-2.9-11.11-4.23-12.15-15.49-6.73-23.95,8.62-13.48,21.6-19.28,37.16-18.91,13.27.31,24.6,5.55,32.69,16.47,1.84,2.48,3.24,5.47,4.1,8.43,2.22,7.68-.77,13.84-7.95,17.36-1.09.54-2.23.99-3.6,1.59Zm-20.74-5.82c-.73-2.66-1.01-5.04-2.02-7.04-2.05-4.07-5.46-4.04-7.76-.17-2.4,4.03-2.21,10.5.42,14.09,2.05,2.8,4.86,3.02,6.67.1,1.32-2.12,1.85-4.72,2.69-6.97Z"></path><path class="cls-2" d="m233.11,335.91h29.88c.04.47.22,1.51.22,2.56.01,30.04.04,60.09,0,90.13-.01,8.75-4.1,14.25-11.76,16.18-8,2.02-16.58-3.38-18.12-11.46-.31-1.61-.44-3.29-.44-4.93-.03-29.63-.02-59.26-.01-88.89,0-.95.12-1.9.24-3.59Z"></path><path class="cls-2" d="m292.71,154.44c-.08,14.3-12.3,26.34-26.49,26.12-14.26-.22-25.91-11.98-25.97-26.21-.06-14.31,11.99-26.38,26.27-26.32,14.32.06,26.28,12.11,26.19,26.41Z"></path><path class="cls-2" d="m412.19,179.87c-14.43.06-25.39-10.01-27.2-24.17-1.52-11.88,7.49-24.57,19.58-27.61,12.83-3.22,26.26,3.51,30.9,15.77.68,1.79.51,4.31-.19,6.14-2.59,6.8-6.07,13.29-8.26,20.2-1.93,6.1-5.93,8.47-11.64,9.23-1.36.18-2.72.37-3.2.44Z"></path><path class="cls-2" d="m175.21,208.19c-.23,11.43-4.46,19.97-13.89,25.27-9.71,5.46-19.6,5.06-28.82-1.23-8.14-5.55-12.07-13.47-11.71-23.9,18.19,10.75,36,10.71,54.42-.14Z"></path><path class="cls-2" d="m148.61,245.92c2.28,1.34,6.77-2.13,6.86,3.34.12,7.63-1.74,10.15-6.95,10.15-5.47,0-7.08-2.13-7.01-10.04.06-5.81,4.8-1.97,7.1-3.45Z"></path></g></g></svg>