<svg xmlns="http://www.w3.org/2000/svg" id="Layer_2" data-name="Layer 2" viewBox="0 0 570.71 570.71"><defs><style>      .cls-1 {        fill: #84332e;      }      .cls-1, .cls-2 {        stroke-width: 0px;      }      .cls-2 {        fill: #fff;      }    </style></defs><g id="Capa_2" data-name="Capa 2"><g><path class="cls-1" d="m570.24,38.53c0-21.28-17.2-38.53-38.42-38.53h-215.52l-30.94,31.08L254.42,0H38.42C17.2,0,0,17.25,0,38.53v216.12l30.57,30.7L0,316.06v216.12c0,21.28,17.2,38.53,38.42,38.53h217.53l29.4-29.54,29.4,29.54h217.53c21.22,0,38.43-17.25,38.43-38.53v-215.7l-30.98-31.12,30.98-31.12-.47-215.7Z"></path><path class="cls-2" d="m266.06,170.96c-16.71,3.75-27.54,20.45-23.73,37.45,1.15,4.95,3.51,9.68,6.71,13.43,11.45,11.13,26.62,17.55,42.48,18.16,24.33,2.66,47.76,10.88,68.21,24.32,18.75,14.89,31.64,35.71,36.31,59.13,11.14,54.76-23.97,108.38-78.73,119.51-.6,0,4.05,42.49,4.05,42.49h-59.42l4.12-38.44c-33.71-1.99-66.21-13.72-93.45-33.94l25.48-50.9c29.58,21.3,65.59,31.59,101.9,29.85,24.03-4.67,39.52-27.85,35.17-51.57-3.51-17.59-17.31-31.65-35.17-34.79-11.43-1.51-22.88-3.87-33.94-7.01-34.87-6.78-65.06-28.45-82.01-59.8-3.51-9.09-5.87-19.01-6.47-28.68-2.61-51.86,36.91-95.81,88.48-98.7l-4.12-33.95h59.42l-4.05,33.95c23.72,2.89,46.54,10.22,67.89,21.05l-25.46,46.84c-29-14.27-62.34-17.25-93.68-8.4"></path></g></g></svg>