<svg xmlns="http://www.w3.org/2000/svg" id="Layer_2" data-name="Layer 2" viewBox="0 0 570.71 570.71"><defs><style>      .cls-1 {        fill: #84332e;      }      .cls-1, .cls-2 {        stroke-width: 0px;      }      .cls-2 {        fill: #fff;      }    </style></defs><g id="Capa_2" data-name="Capa 2"><g><path class="cls-1" d="m570.24,38.53c0-21.28-17.2-38.53-38.42-38.53h-215.52l-30.94,31.08L254.42,0H38.42C17.2,0,0,17.25,0,38.53v216.12l30.57,30.7L0,316.06v216.12c0,21.28,17.2,38.53,38.42,38.53h217.53l29.4-29.54,29.4,29.54h217.53c21.22,0,38.43-17.25,38.43-38.53v-215.7l-30.98-31.12,30.98-31.12-.47-215.7Z"></path><g><path class="cls-2" d="m187.44,123.13l190.71-.12v309.97h-45.19v-81.55h-100v81.54h-45.52V123.13Zm27.21,200.44h27v-49.46h-27v49.46Zm54.77-49.46v49.43h26.87v-49.43h-26.87Zm54.68,0v49.42h26.86v-49.42h-26.86Zm-82.56-17.82v-49.28h-26.82v49.28h26.82Zm27.87-49.42v49.26h26.8v-49.26h-26.8Zm81.48,49.42v-49.26h-26.8v49.26h26.8Zm-109.34-64.88v-49.28h-26.82v49.28h26.82Zm27.87-49.42v49.26h26.8v-49.26h-26.8Zm81.48,49.42v-49.26h-26.8v49.26h26.8Z"></path><path class="cls-2" d="m177.86,433.02h-99.87v-186.52h99.87v186.52Zm-50.38-109.35v-49.48h-22.15v49.48h22.15Zm32.1-49.57h-22.14v49.55h22.14v-49.55Zm-32.08,126.87v-49.45h-22.14v49.45h22.14Zm10.01-49.67v49.63h21.96v-49.63h-21.96Z"></path><path class="cls-2" d="m487.49,433.07h-99.67v-186.63h99.67v186.63Zm-81.35-158.97v49.53h21.99v-49.53h-21.99Zm32.09,0v49.49h22.13v-49.49h-22.13Zm-10.1,126.82v-49.49h-22.13v49.49h22.13Zm9.98-.24h22.06v-49.23h-22.06v49.23Z"></path><path class="cls-2" d="m278.49,360.46h8.73v72.48h-8.73v-72.48Z"></path></g></g></g></svg>