<svg xmlns="http://www.w3.org/2000/svg" id="Layer_2" data-name="Layer 2" viewBox="0 0 570.71 570.71"><defs><style>      .cls-1 {        fill: #84332e;      }      .cls-1, .cls-2 {        stroke-width: 0px;      }      .cls-2 {        fill: #fff;      }    </style></defs><g id="Capa_2" data-name="Capa 2"><g><path class="cls-1" d="m570.24,38.53c0-21.28-17.2-38.53-38.42-38.53h-215.52l-30.94,31.08L254.42,0H38.42C17.2,0,0,17.25,0,38.53v216.12l30.57,30.7L0,316.06v216.12c0,21.28,17.2,38.53,38.42,38.53h217.53l29.4-29.54,29.4,29.54h217.53c21.22,0,38.43-17.25,38.43-38.53v-215.7l-30.98-31.12,30.98-31.12-.47-215.7Z"></path><path class="cls-2" d="m451.99,281.48c-.02,92.05-74.59,166.44-166.78,166.4-91.99-.04-166.34-74.67-166.28-166.92.06-91.95,74.73-166.22,167.04-166.14,91.7.08,166.03,74.7,166.01,166.65Zm-181.49-136.14c-.07,1.16-.17,1.97-.17,2.79,0,45.92-.05,91.84.13,137.76,0,1.85,1.56,4.36,3.16,5.44,34.57,23.25,69.25,46.35,103.93,69.45.92.62,2,1,3.2,1.58,5.51-8.29,10.86-16.34,16.31-24.54-1.87-1.31-3.22-2.29-4.6-3.21-29.08-19.4-58.12-38.85-87.28-58.11-3.29-2.18-4.67-4.38-4.65-8.43.17-39.02.1-78.05.1-117.07,0-1.8,0-3.61,0-5.65h-30.11Z"></path></g></g></svg>