<svg xmlns="http://www.w3.org/2000/svg" id="Layer_2" data-name="Layer 2" viewBox="0 0 570.71 570.71"><defs><style>      .cls-1 {        fill: #fff;        fill-rule: evenodd;      }      .cls-1, .cls-2 {        stroke-width: 0px;      }      .cls-2 {        fill: #84332e;      }    </style></defs><g id="Capa_2" data-name="Capa 2"><g><path class="cls-2" d="m570.24,38.53c0-21.28-17.2-38.53-38.42-38.53h-215.52l-30.94,31.08L254.42,0H38.42C17.2,0,0,17.25,0,38.53v216.12l30.57,30.7L0,316.06v216.12c0,21.28,17.2,38.53,38.42,38.53h217.53l29.4-29.54,29.4,29.54h217.53c21.22,0,38.43-17.25,38.43-38.53v-215.7l-30.98-31.12,30.98-31.12-.47-215.7Z"></path><path class="cls-1" d="m213.15,279.8l-4.18-30.26c-55.58,44.52-65.77,127.26-22.76,184.8,43.01,57.54,122.93,68.08,178.51,23.56,7.64-6.12,14.59-13.13,20.7-20.88l-11.51-27.08c-3.84,6.37-8.32,12.31-13.37,17.7-39.44,42.14-104.4,43.2-145.11,2.37-40.7-40.83-41.73-108.08-2.29-150.22m69.59-164.04c0-21.12-16.54-38.24-36.94-38.24s-36.94,17.12-36.94,38.24,16.54,38.24,36.94,38.24,36.94-17.12,36.94-38.24m8.21,174.22h77.99c10.77,0,20.49,6.7,24.63,17l45.16,110.48c3.05,7.47,1.86,16.08-3.09,22.36-7.38,9.37-20.7,10.77-29.75,3.13l-45.15-106.23h-98.51c-15.87,0-28.73-13.32-28.73-29.74l-16.42-118.98c1.79-9.57,7.73-17.76,16.1-22.22,15.08-8.04,33.6-1.89,41.36,13.73l8.21,50.99h73.89c6.8,0,12.31,5.71,12.31,12.75s-5.51,12.75-12.31,12.75h-69.78l4.1,33.99Z"></path></g></g></svg>