<svg xmlns="http://www.w3.org/2000/svg" id="Layer_2" data-name="Layer 2" viewBox="0 0 669.35 172.02"><defs><style>      .cls-1 {        fill: #235b4e;      }      .cls-1, .cls-2 {        fill-rule: evenodd;      }      .cls-1, .cls-2, .cls-3 {        stroke-width: 0px;      }      .cls-2 {        fill: #9f2241;      }      .cls-3 {        fill: #6f7271;      }    </style></defs><g id="Capa_1" data-name="Capa 1"><g><g><path class="cls-2" d="m0,0l34.56,34.56c13.17-13.17,31.36-21.32,51.45-21.32,40.18,0,72.77,32.59,72.77,72.78,0,20.09-8.15,38.28-21.32,51.44l34.56,34.55V0H0Z"/><path class="cls-1" d="m46.81,24.72c11.31-7.27,24.77-11.48,39.2-11.48,31.47,0,58.28,19.97,68.42,47.94-21.6-5.03-32.86,23.16-61.12,20.92-20.39-1.64-29.9-25.72-46.5-57.38m-14.8,12.53c1.66-1.83,3.39-3.58,5.22-5.23,13,25.37,27.03,58.83,47.56,59.52,29.41.99,36.73-27.12,60.54-21.27,5.45,1.35,9.61,3.83,12.96,7.27.32,2.78.5,5.59.5,8.48,0,1.21-.03,2.43-.1,3.64-3.81-5.82-8.77-10.2-14.69-12.29-23.53-8.37-34.5,22.4-64,20.06-20.99-1.67-30.45-27.13-47.99-60.17m-12.25,18.64c1.28-2.83,2.73-5.54,4.35-8.13,12.94,25.32,26.93,58.43,47.36,59.14,29.4.95,36.72-27.12,60.54-21.27,12.24,3.02,18,12.36,22.56,24.79-1,2.86-2.19,5.63-3.54,8.29-3.71-12.14-10.89-21.98-20.76-25.5-23.53-8.37-34.51,22.42-63.99,20.09-20.4-1.67-29.92-25.72-46.52-57.41m-6.51,30.12c0-4.8.46-9.5,1.35-14.03,11.81,23.68,24.91,50.16,43.15,50.75,29.41.98,36.72-26.36,60.53-20.47,14.12,3.47,19.64,13.82,24.61,29.15-13.34,16.68-33.85,27.36-56.88,27.36-40.19,0-72.76-32.57-72.76-72.76"/><path class="cls-1" d="m46.81,24.72c11.31-7.27,24.77-11.48,39.2-11.48,31.47,0,58.28,19.97,68.42,47.94-21.6-5.03-32.86,23.16-61.12,20.92-20.39-1.64-29.9-25.72-46.5-57.38m-14.8,12.53c1.66-1.83,3.39-3.58,5.22-5.23,13,25.37,27.03,58.83,47.56,59.52,29.41.99,36.73-27.12,60.54-21.27,5.45,1.35,9.61,3.83,12.96,7.27.32,2.78.5,5.59.5,8.48,0,1.21-.03,2.43-.1,3.64-3.81-5.82-8.77-10.2-14.69-12.29-23.53-8.37-34.5,22.4-64,20.06-20.99-1.67-30.45-27.13-47.99-60.17m-12.25,18.64c1.28-2.83,2.73-5.54,4.35-8.13,12.94,25.32,26.93,58.43,47.36,59.14,29.4.95,36.72-27.12,60.54-21.27,12.24,3.02,18,12.36,22.56,24.79-1,2.86-2.19,5.63-3.54,8.29-3.71-12.14-10.89-21.98-20.76-25.5-23.53-8.37-34.51,22.42-63.99,20.09-20.4-1.67-29.92-25.72-46.52-57.41m-6.51,30.12c0-4.8.46-9.5,1.35-14.03,11.81,23.68,24.91,50.16,43.15,50.75,29.41.98,36.72-26.36,60.53-20.47,14.12,3.47,19.64,13.82,24.61,29.15-13.34,16.68-33.85,27.36-56.88,27.36-40.19,0-72.76-32.57-72.76-72.76"/></g><g><path class="cls-3" d="m189.64,36.15c.17-1.11.3-4,.3-7.28v-7.79c0-2.38.04-6.09-.43-6.56-.55-.55-2.34-1.23-3.66-1.66l.55-2.6h11.92c5.32,0,9.54-.13,13.03-.38.47.6,1.06,1.49,1.36,2.04-.34,2.09-1.15,5.88-1.49,7.36-.98.04-3.41-.04-4.47-.26l-1.15-5.11c-1.15-.13-2.81-.21-4.26-.21-1.32,0-2.55.04-3.66.08-.13,1.36-.3,4.34-.3,7.62v2.94l8.81-.51.85,1.15c-.21,1.11-.43,2.38-.64,3.53l-9.03-.38v1.11c0,2.26-.08,6.05.47,6.6.64.6,3.32,1.06,5.28,1.62l-.6,2.6h-16.13l-.55-2.6,3.79-1.32Z"/><path class="cls-3" d="m215.05,26.06c0-9.75,6.56-16.43,16.22-16.43,8.68,0,14.69,5.66,14.69,14.86s-6.51,16.22-15.84,16.22-15.07-5.58-15.07-14.65Zm20.86,8.43c.85-1.19,2.21-4.47,2.21-8.94,0-7.19-2-11.24-7.79-11.24-2,0-4.13.68-5.24,1.53-1.45,2.13-2.21,5.53-2.21,9.62,0,6.56,2.51,10.56,7.75,10.56,2.26,0,4.26-.64,5.28-1.53Z"/><path class="cls-3" d="m273.92,40.24l-3.96-5.28c-3.24-4.3-7.66-9.54-11.24-13.67.13,8,.43,13.5.81,14.35.55.68,2.94,1.28,4.98,1.83l-.55,2.6h-13.2l-.55-2.6,3.75-1.32c.17-1.11.34-4.9.34-11.2,0-5.83-.08-9.54-.64-10.26-.72-.64-2.13-1.32-3.45-1.83l.55-2.6c3.11,0,6.85-.09,9.71-.17,2.68,4.47,9.66,12.94,14.69,18.94-.08-8.17-.47-13.45-.94-14.35-.43-.6-2.77-1.32-4.38-1.83l.55-2.6h13.15l.55,2.6-3.75,1.36c-.47,2.38-.72,12.09-.72,25.46l-5.7.55Z"/><path class="cls-3" d="m291.5,36.15c.17-1.11.3-4,.3-7.28v-7.79c0-2.38,0-6-.38-6.51-.43-.55-2.3-1.23-3.7-1.7l.55-2.6h6.56c1.58,0,6.34-.26,8.56-.26,12.3,0,16.48,6.85,16.48,14.9,0,10.39-7.15,15.54-15.2,15.54-2.72,0-6.77-.38-9.54-.38h-6.85l-.55-2.6,3.79-1.32Zm8.13-.38c.55.72,4.34,1.53,7.36.38,3.19-1.75,5.02-5.66,5.02-11.24,0-4.64-1.7-8.26-3.41-9.62-1.4-.89-3.49-1.32-5.66-1.32-1.19,0-2.47.08-3.41.26-.17,1.11-.3,4-.3,7.24v7.79c0,2.38,0,6,.38,6.51Z"/><path class="cls-3" d="m323.67,26.06c0-9.75,6.56-16.43,16.22-16.43,8.68,0,14.69,5.66,14.69,14.86s-6.51,16.22-15.84,16.22-15.07-5.58-15.07-14.65Zm20.86,8.43c.85-1.19,2.21-4.47,2.21-8.94,0-7.19-2-11.24-7.79-11.24-2,0-4.13.68-5.24,1.53-1.45,2.13-2.21,5.53-2.21,9.62,0,6.56,2.51,10.56,7.75,10.56,2.26,0,4.26-.64,5.28-1.53Z"/></g><g><path class="cls-3" d="m209.34,98.09l-3.96-5.28c-3.24-4.3-7.66-9.54-11.24-13.67.13,8,.43,13.5.81,14.35.55.68,2.94,1.28,4.98,1.83l-.55,2.6h-13.2l-.55-2.6,3.75-1.32c.17-1.11.34-4.9.34-11.2,0-5.83-.08-9.54-.64-10.26-.72-.64-2.13-1.32-3.45-1.83l.55-2.6c3.11,0,6.85-.09,9.71-.17,2.68,4.47,9.66,12.94,14.69,18.94-.08-8.17-.47-13.45-.94-14.35-.43-.6-2.77-1.32-4.38-1.83l.55-2.6h13.15l.55,2.6-3.75,1.36c-.47,2.38-.72,12.09-.72,25.46l-5.7.55Z"/><path class="cls-3" d="m233.26,97.92h-12.56l-.55-2.6,3.28-1.32c2.64-6.39,5.53-14.22,8.17-21.63l1.19-4.26c2.68-.21,6.98-.43,9.45-.43.34,1.32.94,2.98,1.53,4.68,2.64,7.49,5.83,16.13,8,21.67l3.32,1.28-.55,2.6h-14.47l-.55-2.6,4.04-1.28c-.51-1.49-1.11-3.28-1.75-5.24l-10.64.26c-.51,1.66-.98,3.36-1.45,4.98l4.13,1.28-.6,2.6Zm7.24-12.86c-1.36-4-2.9-8.39-4.3-12.26-1.19,3.53-2.51,7.79-3.79,12.09l8.09.17Z"/><path class="cls-3" d="m277.02,92.98c.3-.85.94-2.89,1.62-5.36,1.06-.04,3.92.08,5.02.21.13,1.83.17,4.73.17,6.39l-.64,1.32c-2.55,1.66-6.68,3.02-11.32,3.02-9.58,0-15.5-5.7-15.5-15.03s7.24-16.05,16.22-16.05c4.3,0,7.96,1.15,10.98,2.64l.72,1.28c-.43,2.3-1.15,5.58-1.66,7.71-1.02.04-3.53-.04-4.68-.21-.47-2.43-1.06-4.81-1.4-5.92-.85-.51-2.55-.89-4.3-.89-2.04,0-3.87.43-4.85,1.02-1.87,2.26-3.07,5.58-3.07,9.92,0,6.51,2.94,10.69,8.47,10.69,2.04,0,3.45-.3,4.21-.72Z"/><path class="cls-3" d="m292.34,94c.17-1.11.3-4,.3-7.28v-7.79c0-2.38,0-6-.38-6.51-.43-.55-2.3-1.23-3.7-1.7l.55-2.6h14.52l.55,2.6-3.79,1.32c-.17,1.11-.3,4-.3,7.28v7.79c0,2.38,0,6,.38,6.51.43.55,2.3,1.23,3.7,1.7l-.55,2.6h-14.52l-.55-2.6,3.79-1.32Z"/><path class="cls-3" d="m308.43,83.92c0-9.75,6.56-16.43,16.22-16.43,8.68,0,14.69,5.66,14.69,14.86s-6.51,16.22-15.84,16.22-15.07-5.58-15.07-14.65Zm20.86,8.43c.85-1.19,2.21-4.47,2.21-8.94,0-7.19-2-11.24-7.79-11.24-2,0-4.13.68-5.24,1.53-1.45,2.13-2.21,5.53-2.21,9.62,0,6.56,2.51,10.56,7.75,10.56,2.26,0,4.26-.64,5.28-1.53Z"/><path class="cls-3" d="m367.3,98.09l-3.96-5.28c-3.24-4.3-7.66-9.54-11.24-13.67.13,8,.43,13.5.81,14.35.55.68,2.94,1.28,4.98,1.83l-.55,2.6h-13.2l-.55-2.6,3.75-1.32c.17-1.11.34-4.9.34-11.2,0-5.83-.09-9.54-.64-10.26-.72-.64-2.13-1.32-3.45-1.83l.55-2.6c3.11,0,6.85-.09,9.71-.17,2.68,4.47,9.66,12.94,14.69,18.94-.09-8.17-.47-13.45-.94-14.35-.43-.6-2.77-1.32-4.39-1.83l.55-2.6h13.16l.55,2.6-3.75,1.36c-.47,2.38-.72,12.09-.72,25.46l-5.71.55Z"/><path class="cls-3" d="m391.23,97.92h-12.56l-.55-2.6,3.28-1.32c2.64-6.39,5.53-14.22,8.17-21.63l1.19-4.26c2.68-.21,6.98-.43,9.45-.43.34,1.32.94,2.98,1.53,4.68,2.64,7.49,5.83,16.13,8,21.67l3.32,1.28-.55,2.6h-14.47l-.55-2.6,4.04-1.28c-.51-1.49-1.11-3.28-1.75-5.24l-10.64.26c-.51,1.66-.98,3.36-1.45,4.98l4.13,1.28-.6,2.6Zm7.24-12.86c-1.36-4-2.9-8.39-4.3-12.26-1.19,3.53-2.51,7.79-3.79,12.09l8.09.17Z"/><path class="cls-3" d="m418.55,94c.17-1.11.3-4,.3-7.28v-7.79c0-2.38,0-6-.38-6.51-.43-.55-2.3-1.23-3.7-1.7l.55-2.6h14.52l.55,2.6-3.79,1.32c-.17,1.11-.3,4-.3,7.28v7.79c0,2.81,0,6.3.55,6.68.68.47,2.6.55,4.09.55,1.28,0,2.68-.04,3.66-.17l1.49-5.66c1.19-.04,3.79.04,4.85.26.08,2.94.08,6.04,0,9.15h-25.63l-.55-2.6,3.79-1.32Z"/><path class="cls-3" d="m458.82,94c.17-1.11.3-4,.3-7.28v-7.79c0-2.38,0-6-.38-6.51-.43-.55-2.3-1.23-3.7-1.7l.55-2.6h6.56c1.58,0,6.34-.26,8.56-.26,12.3,0,16.48,6.85,16.48,14.9,0,10.39-7.15,15.54-15.2,15.54-2.72,0-6.77-.38-9.54-.38h-6.85l-.55-2.6,3.79-1.32Zm8.13-.38c.55.72,4.34,1.53,7.37.38,3.19-1.75,5.02-5.66,5.02-11.24,0-4.64-1.7-8.26-3.41-9.62-1.4-.89-3.49-1.32-5.66-1.32-1.19,0-2.47.08-3.41.26-.17,1.11-.3,4-.3,7.24v7.79c0,2.38,0,6,.38,6.51Z"/><path class="cls-3" d="m495.21,94c.17-1.11.3-4,.3-7.28v-7.79c0-2.38.04-6.09-.43-6.56-.55-.55-2.34-1.23-3.66-1.66l.55-2.6h11.92c5.41,0,9.71-.13,13.24-.38.47.6,1.06,1.49,1.36,2.04-.34,2.09-1.15,5.88-1.49,7.36-.98.04-3.41-.04-4.47-.26l-1.15-5.15c-1.19-.13-2.94-.17-4.47-.17-1.32,0-2.55.04-3.66.08-.13,1.36-.3,4.34-.3,7.62v2.21l9.02-.51.85,1.11c-.21,1.11-.43,2.43-.64,3.53l-9.24-.38v1.87c0,2.47-.09,6.05.47,6.6.68.64,2.81.77,4.38.77,1.49,0,3.07-.17,4.17-.38l1.49-5.19c1.19-.08,3.79.04,4.81.21.13,2.85.13,5.83,0,8.81h-26.31l-.55-2.6,3.79-1.32Z"/></g><g><path class="cls-3" d="m189.42,155.73c.17-1.11.3-4,.3-7.28v-7.79c0-2.38,0-6-.38-6.51-.43-.55-2.3-1.23-3.7-1.7l.55-2.6h14.52l.55,2.6-3.79,1.32c-.17,1.11-.3,4-.3,7.28v7.79c0,2.38,0,6,.38,6.51.43.55,2.3,1.23,3.7,1.7l-.55,2.6h-14.52l-.55-2.6,3.79-1.32Z"/><path class="cls-3" d="m229.65,159.82l-3.96-5.28c-3.24-4.3-7.66-9.54-11.24-13.67.13,8,.43,13.5.81,14.35.55.68,2.94,1.28,4.98,1.83l-.55,2.6h-13.2l-.55-2.6,3.75-1.32c.17-1.11.34-4.9.34-11.2,0-5.83-.08-9.54-.64-10.26-.72-.64-2.13-1.32-3.45-1.83l.55-2.6c3.11,0,6.85-.09,9.71-.17,2.68,4.47,9.66,12.94,14.69,18.94-.08-8.17-.47-13.45-.94-14.35-.43-.6-2.77-1.32-4.38-1.83l.55-2.6h13.15l.55,2.6-3.75,1.36c-.47,2.38-.72,12.09-.72,25.46l-5.7.55Z"/><path class="cls-3" d="m247.22,155.73c.17-1.11.3-4,.3-7.28v-7.79c0-2.38.04-6.09-.43-6.56-.55-.55-2.34-1.23-3.66-1.66l.55-2.6h11.92c5.32,0,9.54-.13,13.03-.38.47.6,1.06,1.49,1.36,2.04-.34,2.09-1.15,5.87-1.49,7.36-.98.04-3.41-.04-4.47-.25l-1.15-5.11c-1.15-.13-2.81-.21-4.26-.21-1.32,0-2.55.04-3.66.09-.13,1.36-.3,4.34-.3,7.62v2.94l8.81-.51.85,1.15c-.21,1.11-.43,2.38-.64,3.53l-9.03-.38v1.11c0,2.26-.08,6.05.47,6.6.64.6,3.32,1.06,5.28,1.62l-.6,2.6h-16.13l-.55-2.6,3.79-1.32Z"/><path class="cls-3" d="m277.28,155.73c.17-1.11.3-4,.3-7.28v-7.79c0-2.38,0-6-.38-6.51-.43-.55-2.3-1.23-3.7-1.7l.55-2.6h7.11c1.58,0,6.43-.26,8.73-.26,7.66,0,12.35,2.68,12.35,8.26,0,3.75-2.81,6.13-5.62,7.49,2.04,4.04,4.3,8.13,5.75,10.22l2.85,1.49-.55,2.6c-2.9,0-5.41.04-8.81.17-1.4-3.36-3.41-7.49-5.79-12.09h-5.02v1.11c0,2.38,0,6,.38,6.51.43.55,2.3,1.23,3.7,1.7l-.55,2.6h-14.52l-.55-2.6,3.79-1.32Zm7.75-12.26l6.94.26c1.28-.98,2.43-2.85,2.43-5.49,0-1.75-.43-3.02-1.11-3.87-.89-.68-2.64-1.06-4.56-1.06-1.11,0-2.43.17-3.41.47-.17,1.11-.3,4-.3,7.28v2.43Z"/><path class="cls-3" d="m318.95,159.65h-12.56l-.55-2.6,3.28-1.32c2.64-6.39,5.53-14.22,8.17-21.63l1.19-4.26c2.68-.21,6.98-.43,9.45-.43.34,1.32.94,2.98,1.53,4.68,2.64,7.49,5.83,16.13,8,21.67l3.32,1.28-.55,2.6h-14.47l-.55-2.6,4.04-1.28c-.51-1.49-1.11-3.28-1.75-5.24l-10.64.25c-.51,1.66-.98,3.36-1.45,4.98l4.13,1.28-.6,2.6Zm7.24-12.86c-1.36-4-2.9-8.39-4.3-12.26-1.19,3.53-2.51,7.79-3.79,12.09l8.09.17Z"/><path class="cls-3" d="m346.27,155.73c.17-1.11.3-4,.3-7.28v-7.79c0-2.38.04-6.09-.43-6.56-.55-.55-2.34-1.23-3.66-1.66l.55-2.6h11.92c5.41,0,9.71-.13,13.24-.38.47.6,1.06,1.49,1.36,2.04-.34,2.09-1.15,5.87-1.49,7.36-.98.04-3.41-.04-4.47-.25l-1.15-5.15c-1.19-.13-2.94-.17-4.47-.17-1.32,0-2.55.04-3.66.09-.13,1.36-.3,4.34-.3,7.62v2.21l9.02-.51.85,1.11c-.21,1.11-.43,2.43-.64,3.53l-9.24-.38v1.87c0,2.47-.09,6.05.47,6.6.68.64,2.81.77,4.38.77,1.49,0,3.07-.17,4.17-.38l1.49-5.19c1.19-.08,3.79.04,4.81.21.13,2.85.13,5.83,0,8.81h-26.31l-.55-2.6,3.79-1.32Z"/><path class="cls-3" d="m397.06,131.51l.72,1.32c-.34,1.92-1.15,5.36-1.49,6.39-.98.04-3.58-.04-4.64-.21-.26-2.04-.55-3.41-.89-4.43-.94-.6-2.43-.98-4.09-.98-1.49,0-2.81.34-3.53.81-.38.64-.81,1.53-.81,2.6,0,6.51,15.84,4.43,15.84,14.69,0,5.11-4.98,8.6-12.22,8.6-4.64,0-8.94-1.49-11.28-2.51v-.21c-.04-2.26,0-4.51.17-6.73,1.19-.21,3.87-.3,4.98-.21.47,2,.85,3.36,1.24,4.47,1.06.64,3.32,1.02,5.02,1.02,1.49,0,2.64-.21,3.49-.6.43-.55.81-1.62.81-2.77,0-5.88-15.58-3.66-15.58-14.18,0-5.53,5.49-9.37,12.56-9.37,4,0,7.36.94,9.71,2.3Z"/><path class="cls-3" d="m411.32,155.73c.17-1.11.3-4,.3-7.28v-15.16h-.43c-1.36,0-2.85.09-3.96.21l-1.49,5.71c-1.23.08-3.87,0-4.94-.21-.13-2.89-.13-6.09,0-9.15h15.41c5.15,0,9.37-.09,12.64-.3.43.55,1.02,1.41,1.32,1.96-.13,2.43-.43,5.32-.72,7.54-1.02.17-3.62.13-4.6-.04l-1.36-5.49c-1.15-.17-2.64-.21-4-.21h-.43v15.54c0,2.38,0,6,.38,6.51.43.55,2.3,1.23,3.7,1.7l-.55,2.6h-14.52l-.55-2.6,3.79-1.32Z"/><path class="cls-3" d="m437.36,155.73c.17-1.11.3-4,.3-7.28v-7.79c0-2.38,0-6-.38-6.51-.43-.55-2.3-1.23-3.7-1.7l.55-2.6h7.11c1.57,0,6.43-.26,8.73-.26,7.66,0,12.35,2.68,12.35,8.26,0,3.75-2.81,6.13-5.62,7.49,2.04,4.04,4.3,8.13,5.75,10.22l2.85,1.49-.55,2.6c-2.89,0-5.41.04-8.81.17-1.4-3.36-3.41-7.49-5.79-12.09h-5.02v1.11c0,2.38,0,6,.38,6.51.43.55,2.3,1.23,3.7,1.7l-.55,2.6h-14.52l-.55-2.6,3.79-1.32Zm7.75-12.26l6.94.26c1.28-.98,2.43-2.85,2.43-5.49,0-1.75-.43-3.02-1.11-3.87-.89-.68-2.64-1.06-4.56-1.06-1.11,0-2.43.17-3.41.47-.17,1.11-.3,4-.3,7.28v2.43Z"/><path class="cls-3" d="m482.02,160.29c-9.15,0-13.28-4.98-13.28-14.77v-4.51c0-2.3,0-6.09-.51-6.77-.43-.64-2.26-1.32-3.58-1.79l.55-2.6h14.86l.55,2.6-3.87,1.32c-.17,1.11-.34,4-.34,7.24v4.9c0,5.88,1.62,9.54,7.19,9.54,2.43,0,4.51-.81,5.58-1.7,1.02-3.24.94-7.83.94-11.32s-.04-7.62-.34-8.34c-.51-.43-2.72-1.15-4.21-1.62l.55-2.6h12.9l.55,2.6-4,1.36c-.17,2.72-.26,6.43-.26,13.15,0,8.81-5.15,13.33-13.28,13.33Z"/><path class="cls-3" d="m522.76,154.71c.3-.85.94-2.89,1.62-5.36,1.06-.04,3.92.09,5.02.21.13,1.83.17,4.73.17,6.39l-.64,1.32c-2.55,1.66-6.68,3.02-11.32,3.02-9.58,0-15.5-5.71-15.5-15.03s7.24-16.05,16.22-16.05c4.3,0,7.96,1.15,10.98,2.64l.72,1.28c-.43,2.3-1.15,5.58-1.66,7.71-1.02.04-3.53-.04-4.68-.21-.47-2.43-1.06-4.81-1.41-5.92-.85-.51-2.55-.89-4.3-.89-2.04,0-3.87.43-4.85,1.02-1.87,2.26-3.07,5.58-3.07,9.92,0,6.51,2.94,10.69,8.47,10.69,2.04,0,3.45-.3,4.21-.72Z"/><path class="cls-3" d="m543.61,155.73c.17-1.11.3-4,.3-7.28v-15.16h-.43c-1.36,0-2.85.09-3.96.21l-1.49,5.71c-1.23.08-3.87,0-4.94-.21-.13-2.89-.13-6.09,0-9.15h15.41c5.15,0,9.37-.09,12.64-.3.43.55,1.02,1.41,1.32,1.96-.13,2.43-.43,5.32-.72,7.54-1.02.17-3.62.13-4.6-.04l-1.36-5.49c-1.15-.17-2.64-.21-4-.21h-.43v15.54c0,2.38,0,6,.38,6.51.43.55,2.3,1.23,3.7,1.7l-.55,2.6h-14.52l-.55-2.6,3.79-1.32Z"/><path class="cls-3" d="m581.54,160.29c-9.15,0-13.28-4.98-13.28-14.77v-4.51c0-2.3,0-6.09-.51-6.77-.43-.64-2.26-1.32-3.58-1.79l.55-2.6h14.86l.55,2.6-3.87,1.32c-.17,1.11-.34,4-.34,7.24v4.9c0,5.88,1.62,9.54,7.19,9.54,2.43,0,4.51-.81,5.58-1.7,1.02-3.24.94-7.83.94-11.32s-.04-7.62-.34-8.34c-.51-.43-2.72-1.15-4.21-1.62l.55-2.6h12.9l.55,2.6-4,1.36c-.17,2.72-.26,6.43-.26,13.15,0,8.81-5.15,13.33-13.28,13.33Z"/><path class="cls-3" d="m605.84,155.73c.17-1.11.3-4,.3-7.28v-7.79c0-2.38,0-6-.38-6.51-.43-.55-2.3-1.23-3.7-1.7l.55-2.6h7.11c1.57,0,6.43-.26,8.73-.26,7.66,0,12.35,2.68,12.35,8.26,0,3.75-2.81,6.13-5.62,7.49,2.04,4.04,4.3,8.13,5.75,10.22l2.85,1.49-.55,2.6c-2.89,0-5.41.04-8.81.17-1.4-3.36-3.41-7.49-5.79-12.09h-5.02v1.11c0,2.38,0,6,.38,6.51.43.55,2.3,1.23,3.7,1.7l-.55,2.6h-14.52l-.55-2.6,3.79-1.32Zm7.75-12.26l6.94.26c1.28-.98,2.43-2.85,2.43-5.49,0-1.75-.43-3.02-1.11-3.87-.89-.68-2.64-1.06-4.56-1.06-1.11,0-2.43.17-3.41.47-.17,1.11-.3,4-.3,7.28v2.43Z"/><path class="cls-3" d="m647.51,159.65h-12.56l-.55-2.6,3.28-1.32c2.64-6.39,5.53-14.22,8.17-21.63l1.19-4.26c2.68-.21,6.98-.43,9.45-.43.34,1.32.94,2.98,1.53,4.68,2.64,7.49,5.83,16.13,8,21.67l3.32,1.28-.55,2.6h-14.47l-.55-2.6,4.04-1.28c-.51-1.49-1.11-3.28-1.75-5.24l-10.64.25c-.51,1.66-.98,3.36-1.45,4.98l4.13,1.28-.6,2.6Zm7.24-12.86c-1.36-4-2.9-8.39-4.3-12.26-1.19,3.53-2.51,7.79-3.79,12.09l8.09.17Z"/></g></g></g></svg>