<svg xmlns="http://www.w3.org/2000/svg" id="Layer_2" data-name="Layer 2" viewBox="0 0 358 70.87"><defs><style>      .cls-1 {        fill: #2d2a26;      }      .cls-1, .cls-2, .cls-3 {        stroke-width: 0px;      }      .cls-2 {        fill: #83332e;      }      .cls-3 {        fill: #fff;      }    </style></defs><g id="Capa_1" data-name="Capa 1"><path class="cls-2" d="m70.81,4.78c0-2.64-2.14-4.78-4.77-4.78h-26.76l-3.84,3.86-3.84-3.86H4.77C2.14,0,0,2.14,0,4.78v26.84l3.8,3.81-3.8,3.81v26.84c0,2.64,2.14,4.78,4.77,4.78h27.01l3.65-3.67,3.65,3.67h27.01c2.64,0,4.77-2.14,4.77-4.78v-26.78l-3.85-3.86,3.85-3.86-.06-26.78Z"/><g><path class="cls-3" d="m50.55,24.4v17.34c0,4.87-3.95,8.82-8.82,8.82h-12.6c-4.87,0-8.82-3.95-8.82-8.82v-17.34h-7.56v17.34c0,3.25.94,6.27,2.57,8.82,2.91,4.55,8.01,7.56,13.8,7.56h12.6c5.8,0,10.89-3.01,13.8-7.56,1.63-2.55,2.57-5.57,2.57-8.82v-17.34h-7.56Z"/><rect class="cls-3" x="12.76" y="12.76" width="45.35" height="7.56"/><rect class="cls-3" x="24.56" y="31.17" width="21.12" height="7.56" transform="translate(70.07 -.16) rotate(90)"/></g><g><path class="cls-1" d="m83.77,23.31h8.64v3.84h-8.64v3.36c0,1.86,1.5,3.36,3.36,3.36h6.72c1.86,0,3.36-1.5,3.36-3.36h3.84c0,3.98-3.22,7.2-7.2,7.2h-6.72c-3.97,0-7.2-3.22-7.2-7.2v-10.56c0-3.98,3.22-7.2,7.2-7.2h6.72c3.97,0,7.2,3.22,7.2,7.2h-3.84c0-1.85-1.5-3.36-3.36-3.36h-6.72c-1.86,0-3.36,1.5-3.36,3.36v3.36Z"/><path class="cls-1" d="m104.84,37.7V12.75h3.84v21.11h13.43v3.84h-17.27Z"/><path class="cls-1" d="m132.82,37.7V12.75h3.84v24.95h-3.84Z"/><path class="cls-1" d="m145.24,13.58c1-.53,2.15-.83,3.36-.83h6.72c3.97,0,7.2,3.22,7.2,7.2v17.75h-3.84v-17.75c0-1.86-1.5-3.36-3.36-3.36h-6.72c-1.85,0-3.36,1.5-3.36,3.36v17.75h-3.84V12.75h3.84v.83Z"/><path class="cls-1" d="m180.25,23.31c3.98,0,7.18,3.22,7.18,7.2s-3.2,7.2-7.18,7.2h-6.74c-3.97,0-7.2-3.22-7.2-7.2h3.84c0,1.86,1.5,3.36,3.36,3.36h6.74c1.86,0,3.34-1.5,3.34-3.36s-1.48-3.36-3.34-3.36h-6.74c-3.97,0-7.2-3.22-7.2-7.2s3.22-7.2,7.2-7.2h6.74c3.97,0,7.18,3.22,7.18,7.2h-3.84c0-1.86-1.48-3.36-3.34-3.36h-6.73c-1.86,0-3.36,1.5-3.36,3.36s1.5,3.36,3.36,3.36h6.73Z"/><path class="cls-1" d="m212.33,30.51c0,3.98-3.22,7.2-7.2,7.2h-6.72c-3.97,0-7.2-3.22-7.2-7.2V12.75h3.84v17.75c0,1.86,1.5,3.36,3.36,3.36h6.72c1.86,0,3.36-1.5,3.36-3.36V12.75h3.84v17.75Z"/><path class="cls-1" d="m230.04,12.75c3.97,0,7.2,3.22,7.2,7.2,0,2.08-.89,3.96-2.3,5.28,1.42,1.31,2.3,3.19,2.3,5.28v7.2h-3.84v-7.2c0-1.85-1.5-3.36-3.36-3.36h-10.08v10.56h-3.84V12.75h13.91Zm-10.08,10.56h10.08c1.86,0,3.36-1.51,3.36-3.36s-1.5-3.36-3.36-3.36h-10.08v6.72Z"/><path class="cls-1" d="m244.88,30.51c0,1.86,1.5,3.36,3.36,3.36h6.74c1.86,0,3.34-1.5,3.34-3.36v-3.36h-8.64v-3.84h12.48v7.2c0,3.98-3.2,7.2-7.18,7.2h-6.74c-3.97,0-7.2-3.22-7.2-7.2v-10.55c0-3.98,3.22-7.2,7.2-7.2h6.74c3.98,0,7.18,3.22,7.18,7.2h-3.84c0-1.85-1.48-3.36-3.34-3.36h-6.74c-1.86,0-3.36,1.5-3.36,3.36v10.55Z"/><path class="cls-1" d="m269.78,23.31h8.64v3.84h-8.64v3.36c0,1.86,1.5,3.36,3.36,3.36h6.72c1.86,0,3.36-1.5,3.36-3.36h3.84c0,3.98-3.22,7.2-7.2,7.2h-6.72c-3.97,0-7.2-3.22-7.2-7.2v-10.56c0-3.98,3.22-7.2,7.2-7.2h6.72c3.97,0,7.2,3.22,7.2,7.2h-3.84c0-1.85-1.5-3.36-3.36-3.36h-6.72c-1.86,0-3.36,1.5-3.36,3.36v3.36Z"/><path class="cls-1" d="m294.69,13.58c1-.53,2.15-.83,3.36-.83h6.72c3.97,0,7.2,3.22,7.2,7.2v17.75h-3.84v-17.75c0-1.86-1.5-3.36-3.36-3.36h-6.72c-1.85,0-3.36,1.5-3.36,3.36v17.75h-3.84V12.75h3.84v.83Z"/><path class="cls-1" d="m313.87,12.75h21.11v3.84h-8.64v21.11h-3.84v-21.11h-8.64v-3.84Z"/><path class="cls-1" d="m340.73,23.31h8.64v3.84h-8.64v3.36c0,1.86,1.5,3.36,3.36,3.36h6.72c1.86,0,3.36-1.5,3.36-3.36h3.84c0,3.98-3.22,7.2-7.2,7.2h-6.72c-3.97,0-7.2-3.22-7.2-7.2v-10.56c0-3.98,3.22-7.2,7.2-7.2h6.72c3.97,0,7.2,3.22,7.2,7.2h-3.84c0-1.85-1.5-3.36-3.36-3.36h-6.72c-1.86,0-3.36,1.5-3.36,3.36v3.36Z"/></g><g><path class="cls-1" d="m79.94,47.96h8.74v1.59h-3.58v8.74h-1.59v-8.74h-3.58v-1.59Z"/><path class="cls-1" d="m96.02,47.96c1.64,0,2.98,1.33,2.98,2.98,0,.86-.37,1.64-.95,2.19.59.54.95,1.32.95,2.19v2.98h-1.59v-2.98c0-.77-.62-1.39-1.39-1.39h-4.17v4.37h-1.59v-10.33h5.76Zm-4.17,4.37h4.17c.77,0,1.39-.62,1.39-1.39s-.62-1.39-1.39-1.39h-4.17v2.78Z"/><path class="cls-1" d="m102.16,52.33h3.58v1.59h-3.58v1.39c0,.77.62,1.39,1.39,1.39h2.78c.77,0,1.39-.62,1.39-1.39h1.59c0,1.65-1.34,2.98-2.98,2.98h-2.78c-1.65,0-2.98-1.33-2.98-2.98v-4.37c0-1.65,1.33-2.98,2.98-2.98h2.78c1.64,0,2.98,1.33,2.98,2.98h-1.59c0-.77-.62-1.39-1.39-1.39h-2.78c-.77,0-1.39.62-1.39,1.39v1.39Z"/><path class="cls-1" d="m112.48,48.3c.41-.22.89-.34,1.39-.34h2.78c1.64,0,2.98,1.33,2.98,2.98v7.35h-1.59v-7.35c0-.77-.62-1.39-1.39-1.39h-2.78c-.77,0-1.39.62-1.39,1.39v7.35h-1.59v-10.33h1.59v.34Z"/><path class="cls-1" d="m125.25,58.29v-10.33h1.59v10.33h-1.59Z"/><path class="cls-1" d="m130.4,48.3c.41-.22.89-.34,1.39-.34h2.78c1.64,0,2.98,1.33,2.98,2.98v7.35h-1.59v-7.35c0-.77-.62-1.39-1.39-1.39h-2.78c-.77,0-1.39.62-1.39,1.39v7.35h-1.59v-10.33h1.59v.34Z"/><path class="cls-1" d="m138.34,47.96h8.74v1.59h-3.58v8.74h-1.59v-8.74h-3.58v-1.59Z"/><path class="cls-1" d="m149.47,52.33h3.58v1.59h-3.58v1.39c0,.77.62,1.39,1.39,1.39h2.78c.77,0,1.39-.62,1.39-1.39h1.59c0,1.65-1.34,2.98-2.98,2.98h-2.78c-1.65,0-2.98-1.33-2.98-2.98v-4.37c0-1.65,1.33-2.98,2.98-2.98h2.78c1.64,0,2.98,1.33,2.98,2.98h-1.59c0-.77-.62-1.39-1.39-1.39h-2.78c-.77,0-1.39.62-1.39,1.39v1.39Z"/><path class="cls-1" d="m163.96,47.96c1.64,0,2.98,1.33,2.98,2.98,0,.86-.37,1.64-.95,2.19.59.54.95,1.32.95,2.19v2.98h-1.59v-2.98c0-.77-.62-1.39-1.39-1.39h-4.17v4.37h-1.59v-10.33h5.76Zm-4.17,4.37h4.17c.77,0,1.39-.62,1.39-1.39s-.62-1.39-1.39-1.39h-4.17v2.78Z"/><path class="cls-1" d="m177.26,55.31c0,1.65-1.34,2.98-2.98,2.98h-2.78c-1.65,0-2.98-1.33-2.98-2.98v-7.35h1.59v7.35c0,.77.62,1.39,1.39,1.39h2.78c.77,0,1.39-.62,1.39-1.39v-7.35h1.59v7.35Z"/><path class="cls-1" d="m184.59,47.96c1.64,0,2.98,1.33,2.98,2.98,0,.86-.37,1.64-.95,2.19.59.54.95,1.32.95,2.19v2.98h-1.59v-2.98c0-.77-.62-1.39-1.39-1.39h-4.17v4.37h-1.59v-10.33h5.76Zm-4.17,4.37h4.17c.77,0,1.39-.62,1.39-1.39s-.62-1.39-1.39-1.39h-4.17v2.78Z"/><path class="cls-1" d="m194.92,47.96c1.65,0,2.98,1.33,2.98,2.98,0,.86-.37,1.64-.95,2.19.59.55.95,1.32.95,2.19,0,1.65-1.33,2.98-2.98,2.98h-5.76v-10.33h5.76Zm-4.17,4.37h4.17c.75-.02,1.39-.63,1.39-1.39s-.62-1.39-1.39-1.39h-4.17v2.78Zm0,4.37h4.17c.77,0,1.39-.62,1.39-1.39s-.64-1.37-1.39-1.39h-4.17v2.78Z"/><path class="cls-1" d="m199.48,58.29v-7.35c0-1.64,1.34-2.98,2.98-2.98h2.78c1.64,0,2.98,1.34,2.98,2.98v7.35h-1.59v-4.37h-5.56v4.37h-1.59Zm7.15-5.96v-1.39c0-.77-.62-1.39-1.39-1.39h-2.78c-.77,0-1.39.62-1.39,1.39v1.39h5.56Z"/><path class="cls-1" d="m211.37,48.3c.41-.22.89-.34,1.39-.34h2.78c1.64,0,2.98,1.33,2.98,2.98v7.35h-1.59v-7.35c0-.77-.62-1.39-1.39-1.39h-2.78c-.77,0-1.39.62-1.39,1.39v7.35h-1.59v-10.33h1.59v.34Z"/><path class="cls-1" d="m220.1,50.94c0-1.65,1.33-2.98,2.98-2.98h2.78c1.64,0,2.98,1.33,2.98,2.98v4.37c0,1.65-1.34,2.98-2.98,2.98h-2.78c-1.65,0-2.98-1.33-2.98-2.98v-4.37Zm5.76-1.39h-2.78c-.77,0-1.39.62-1.39,1.39v4.37c0,.77.62,1.39,1.39,1.39h2.78c.77,0,1.39-.62,1.39-1.39v-4.37c0-.77-.62-1.39-1.39-1.39Z"/><path class="cls-1" d="m238.24,47.96c.86,0,1.64.37,2.19.95.54-.59,1.32-.95,2.19-.95h.79c1.65,0,2.98,1.33,2.98,2.98v7.35h-1.59v-7.35c0-.77-.62-1.39-1.39-1.39h-.79c-.76,0-1.37.6-1.39,1.35v7.39h-1.59v-7.39c-.02-.75-.63-1.35-1.39-1.35h-.79c-.77,0-1.39.62-1.39,1.39v7.35h-1.59v-10.33h1.59v.34c.41-.22.89-.34,1.39-.34h.79Z"/><path class="cls-1" d="m262.27,53.13l3.62,5.17h-1.94l-2.65-3.78-2.65,3.78h-1.94l3.62-5.17-3.62-5.17h1.94l2.65,3.78,2.65-3.78h1.94l-3.62,5.17Z"/><path class="cls-1" d="m266.67,58.29v-10.33h1.59v10.33h-1.59Z"/><path class="cls-1" d="m278.58,55.31c0,1.65-1.33,2.98-2.97,2.98h-2.79c-1.65,0-2.98-1.33-2.98-2.98v-4.37c0-1.65,1.33-2.98,2.98-2.98h2.79c1.65,0,2.97,1.33,2.97,2.98h-1.59c0-.77-.61-1.39-1.38-1.39h-2.79c-.77,0-1.39.62-1.39,1.39v4.37c0,.77.62,1.39,1.39,1.39h2.79c.77,0,1.38-.62,1.38-1.39h1.59Z"/><path class="cls-1" d="m279.66,50.94c0-1.65,1.33-2.98,2.98-2.98h2.78c1.64,0,2.98,1.33,2.98,2.98v4.37c0,1.65-1.34,2.98-2.98,2.98h-2.78c-1.65,0-2.98-1.33-2.98-2.98v-4.37Zm5.76-1.39h-2.78c-.77,0-1.39.62-1.39,1.39v4.37c0,.77.62,1.39,1.39,1.39h2.78c.77,0,1.39-.62,1.39-1.39v-4.37c0-.77-.62-1.39-1.39-1.39Z"/><path class="cls-1" d="m294.02,53.92v-1.58h4.75v1.58h-4.75Z"/><path class="cls-1" d="m300.82,47.96h8.74v1.59h-3.58v8.74h-1.59v-8.74h-3.58v-1.59Z"/><path class="cls-1" d="m310.35,50.94c0-1.65,1.33-2.98,2.98-2.98h2.78c1.64,0,2.98,1.33,2.98,2.98v4.37c0,1.65-1.34,2.98-2.98,2.98h-2.78c-1.65,0-2.98-1.33-2.98-2.98v-4.37Zm5.76-1.39h-2.78c-.77,0-1.39.62-1.39,1.39v4.37c0,.77.62,1.39,1.39,1.39h2.78c.77,0,1.39-.62,1.39-1.39v-4.37c0-.77-.62-1.39-1.39-1.39Z"/><path class="cls-1" d="m320.67,58.29v-10.33h1.59v8.74h5.56v1.59h-7.15Z"/><path class="cls-1" d="m337.35,55.31c0,1.65-1.34,2.98-2.98,2.98h-2.78c-1.65,0-2.98-1.33-2.98-2.98v-7.35h1.59v7.35c0,.77.62,1.39,1.39,1.39h2.78c.77,0,1.39-.62,1.39-1.39v-7.35h1.59v7.35Z"/><path class="cls-1" d="m347.67,55.31c0,1.65-1.33,2.98-2.97,2.98h-2.79c-1.65,0-2.98-1.33-2.98-2.98v-4.37c0-1.65,1.33-2.98,2.98-2.98h2.79c1.65,0,2.97,1.33,2.97,2.98h-1.59c0-.77-.61-1.39-1.38-1.39h-2.79c-.77,0-1.39.62-1.39,1.39v4.37c0,.77.62,1.39,1.39,1.39h2.79c.77,0,1.38-.62,1.38-1.39h1.59Z"/><path class="cls-1" d="m349.25,58.29v-7.35c0-1.64,1.34-2.98,2.98-2.98h2.78c1.64,0,2.98,1.34,2.98,2.98v7.35h-1.59v-4.37h-5.56v4.37h-1.59Zm7.15-5.96v-1.39c0-.77-.62-1.39-1.39-1.39h-2.78c-.77,0-1.39.62-1.39,1.39v1.39h5.56Z"/><path class="cls-1" d="m247.91,50.86c0-1.66,1.35-3.01,3.01-3.01h2.81c1.66,0,3.01,1.35,3.01,3.01h-1.61c0-.78-.63-1.41-1.4-1.41h-2.81c-.78,0-1.4.63-1.4,1.4v1.41h3.61v1.61h-3.61v1.4c0,.78.63,1.41,1.4,1.41h2.81c.78,0,1.4-.63,1.4-1.41h1.61c0,1.66-1.35,3.01-3.01,3.01h-2.81c-1.66,0-3.01-1.35-3.01-3.01"/><polygon class="cls-1" points="252.33 47.05 251.59 46 254.46 43.79 255.38 45.11 252.33 47.05"/></g></g></svg>