<svg xmlns="http://www.w3.org/2000/svg" id="Layer_2" data-name="Layer 2" viewBox="0 0 343.44 72.35"><defs><style>      .cls-1 {        fill: #235b4e;      }      .cls-1, .cls-2 {        fill-rule: evenodd;      }      .cls-1, .cls-2, .cls-3, .cls-4 {        stroke-width: 0px;      }      .cls-2 {        fill: #9f2241;      }      .cls-3 {        fill: #6f7271;      }      .cls-4 {        fill: #a09e9e;      }    </style></defs><g id="Capa_1" data-name="Capa 1"><g><g><g><path class="cls-2" d="m117.98,0l12.24,12.24c4.66-4.66,11.1-7.55,18.22-7.55,14.23,0,25.77,11.54,25.77,25.77,0,7.11-2.88,13.55-7.55,18.21l12.24,12.23V0h-60.91Z"/><path class="cls-1" d="m134.55,8.75c4-2.57,8.77-4.06,13.88-4.06,11.14,0,20.63,7.07,24.23,16.97-7.65-1.78-11.63,8.2-21.64,7.41-7.22-.58-10.59-9.11-16.47-20.32Zm-5.24,4.44c.59-.65,1.2-1.27,1.85-1.85,4.6,8.98,9.57,20.83,16.84,21.07,10.41.35,13.01-9.6,21.43-7.53,1.93.48,3.4,1.36,4.59,2.57.12.98.18,1.98.18,3,0,.43-.01.86-.04,1.29-1.35-2.06-3.11-3.61-5.2-4.35-8.33-2.96-12.22,7.93-22.66,7.1-7.43-.59-10.78-9.61-16.99-21.31Zm-4.34,6.6c.45-1,.97-1.96,1.54-2.88,4.58,8.97,9.54,20.69,16.77,20.94,10.41.34,13-9.6,21.44-7.53,4.33,1.07,6.38,4.38,7.99,8.78-.35,1.01-.78,1.99-1.25,2.93-1.31-4.3-3.86-7.78-7.35-9.03-8.33-2.96-12.22,7.94-22.66,7.11-7.22-.59-10.59-9.11-16.47-20.33Zm-2.3,10.67c0-1.7.16-3.36.48-4.97,4.18,8.39,8.82,17.76,15.28,17.97,10.41.35,13-9.33,21.43-7.25,5,1.23,6.96,4.9,8.72,10.32-4.72,5.9-11.99,9.69-20.14,9.69-14.23,0-25.76-11.53-25.76-25.76Z"/><path class="cls-1" d="m134.55,8.75c4-2.57,8.77-4.06,13.88-4.06,11.14,0,20.63,7.07,24.23,16.97-7.65-1.78-11.63,8.2-21.64,7.41-7.22-.58-10.59-9.11-16.47-20.32Zm-5.24,4.44c.59-.65,1.2-1.27,1.85-1.85,4.6,8.98,9.57,20.83,16.84,21.07,10.41.35,13.01-9.6,21.43-7.53,1.93.48,3.4,1.36,4.59,2.57.12.98.18,1.98.18,3,0,.43-.01.86-.04,1.29-1.35-2.06-3.11-3.61-5.2-4.35-8.33-2.96-12.22,7.93-22.66,7.1-7.43-.59-10.78-9.61-16.99-21.31Zm-4.34,6.6c.45-1,.97-1.96,1.54-2.88,4.58,8.97,9.54,20.69,16.77,20.94,10.41.34,13-9.6,21.44-7.53,4.33,1.07,6.38,4.38,7.99,8.78-.35,1.01-.78,1.99-1.25,2.93-1.31-4.3-3.86-7.78-7.35-9.03-8.33-2.96-12.22,7.94-22.66,7.11-7.22-.59-10.59-9.11-16.47-20.33Zm-2.3,10.67c0-1.7.16-3.36.48-4.97,4.18,8.39,8.82,17.76,15.28,17.97,10.41.35,13-9.33,21.43-7.25,5,1.23,6.96,4.9,8.72,10.32-4.72,5.9-11.99,9.69-20.14,9.69-14.23,0-25.76-11.53-25.76-25.76Z"/></g><g><path class="cls-3" d="m4.56,46.22c.15-.86.3-6.93.3-9.47v-9.11c0-3.14,0-8.25-.4-8.81-.46-.61-2.78-1.21-4.45-1.67l.56-2.53h7.09c1.72,0,7.29-.3,9.57-.3,8.05,0,13.06,3.04,13.06,9.21,0,3.95-2.63,6.63-5.62,8.2,4.1,1.01,7.54,3.8,7.54,8.66,0,6.63-6.02,10.07-13.06,10.07-3.24,0-7.64-.4-11.14-.4H.56l-.56-2.53,4.56-1.32Zm13.26.61c1.42,0,3.34-.2,4.71-.66,1.57-1.11,2.73-3.19,2.73-5.77,0-3.54-2.33-5.97-6.93-5.97h-6.88v2.63c0,3.14-.05,8.25.4,8.81.51.66,3.49.96,5.97.96Zm-6.38-16.4l8.15.3c1.92-1.06,3.85-3.49,3.85-6.68,0-2.18-.66-3.59-1.47-4.61-1.32-1.01-3.29-1.47-5.62-1.47-1.37,0-3.39.25-4.61.51-.15.96-.3,6.93-.3,9.47v2.48Z"/><path class="cls-3" d="m48.58,50.06h-13.92l-.51-2.53,4.1-1.32c3.44-8.3,6.88-17.72,10.17-26.62l1.47-4.96c2.38-.3,6.28-.56,8.55-.61.41,1.62,1.06,3.39,1.87,5.67,3.39,9.21,7.39,19.89,9.97,26.52l4.15,1.32-.51,2.53h-15.39l-.56-2.53,5.06-1.32c-.86-2.28-1.82-4.96-2.83-7.95l-13.67.25c-.91,2.63-1.72,5.26-2.53,7.69l5.11,1.32-.56,2.53Zm10.38-15.34c-1.77-4.96-3.75-10.43-5.82-15.89-1.82,5.11-3.64,10.48-5.37,15.74l11.19.15Z"/><path class="cls-3" d="m106.89,50.27l-4.56-6.07c-4.66-6.23-10.48-13.46-15.13-19.23.1,9.06.3,19.89.81,20.8.51.71,3.49,1.27,5.77,1.77l-.51,2.53h-14.53l-.51-2.53,4.5-1.32c.2-1.72.35-6.33.35-13.67-.05-8.6-.1-12.86-.61-13.57-.81-.61-2.83-1.32-4.4-1.82l.51-2.53c3.19,0,6.88-.1,9.82-.15,3.49,5.77,12.1,16.5,19.29,25.51-.05-10.43-.3-20.15-.86-21.06-.41-.66-3.34-1.27-5.32-1.77l.56-2.53h14.43l.56,2.53-4.56,1.37c-.4,3.95-.66,15.94-.66,31.23l-4.96.51Z"/></g><g><path class="cls-3" d="m190.21,46.22c.15-.86.3-6.93.3-9.47v-9.11c0-3.14,0-8.25-.4-8.81-.46-.61-2.78-1.21-4.45-1.67l.56-2.53h7.09c1.72,0,7.29-.3,9.57-.3,8.05,0,13.06,3.04,13.06,9.21,0,3.95-2.63,6.63-5.62,8.2,4.1,1.01,7.54,3.8,7.54,8.66,0,6.63-6.02,10.07-13.06,10.07-3.24,0-7.64-.4-11.14-.4h-7.44l-.56-2.53,4.56-1.32Zm13.26.61c1.42,0,3.34-.2,4.71-.66,1.57-1.11,2.73-3.19,2.73-5.77,0-3.54-2.33-5.97-6.93-5.97h-6.88v2.63c0,3.14-.05,8.25.4,8.81.51.66,3.49.96,5.97.96Zm-6.38-16.4l8.15.3c1.92-1.06,3.85-3.49,3.85-6.68,0-2.18-.66-3.59-1.47-4.61-1.32-1.01-3.29-1.47-5.62-1.47-1.37,0-3.39.25-4.61.51-.15.96-.3,6.93-.3,9.47v2.48Z"/><path class="cls-3" d="m225.76,46.22c.15-.86.3-6.93.3-9.47v-9.11c0-3.14,0-8.25-.4-8.81-.46-.61-2.78-1.21-4.45-1.67l.56-2.53h7.34c1.77,0,7.39-.3,9.82-.3,8.5,0,13.57,3.29,13.57,9.87,0,4.61-3.39,7.54-6.53,9.11,2.13,4.2,5.97,11.24,7.14,12.91l3.9,1.32-.56,2.53c-2.78,0-5.32.1-8.96.2-1.11-2.58-4.81-9.97-7.39-14.88h-7.44v1.67c0,3.14,0,8.25.4,8.81.46.61,2.78,1.21,4.45,1.67l-.56,2.53h-15.19l-.56-2.53,4.56-1.32Zm6.88-14.88l9.11.3c2.02-1.16,3.9-3.75,3.9-7.14,0-2.43-.76-4-1.82-5.16-1.27-.91-3.49-1.37-6.02-1.37-1.57,0-3.49.25-4.86.51-.15,1.01-.3,6.93-.3,9.47v3.39Z"/><path class="cls-3" d="m273.93,50.06h-13.92l-.51-2.53,4.1-1.32c3.44-8.3,6.88-17.72,10.17-26.62l1.47-4.96c2.38-.3,6.28-.56,8.55-.61.41,1.62,1.06,3.39,1.87,5.67,3.39,9.21,7.39,19.89,9.97,26.52l4.15,1.32-.51,2.53h-15.39l-.56-2.53,5.06-1.32c-.86-2.28-1.82-4.96-2.83-7.95l-13.67.25c-.91,2.63-1.72,5.26-2.53,7.69l5.11,1.32-.56,2.53Zm10.38-15.34c-1.77-4.96-3.75-10.43-5.82-15.89-1.82,5.11-3.64,10.48-5.37,15.74l11.19.15Z"/><path class="cls-3" d="m328.45,16.56l.76,1.42c-.35,2.28-1.06,6.02-1.42,7.69-.91.05-3.19,0-4.15-.15-.3-2.73-.61-4.71-.91-6.07-1.21-.86-3.24-1.42-5.62-1.42-2.13,0-4.1.56-5.26,1.42-.61.96-1.11,2.13-1.11,3.64,0,8.45,19.03,6.23,19.03,17.82,0,5.92-5.16,9.92-13.41,9.92-5.16,0-10.02-1.77-12.45-3.09l-.15-.51c-.05-2.33,0-5.26.15-7.49.91-.15,3.59-.25,4.45-.2.46,2.48.81,4,1.21,5.57,1.37.96,4.3,1.67,6.88,1.67,2.38,0,3.9-.35,5.21-1.01.66-.86,1.21-2.13,1.21-3.8,0-7.95-18.83-5.52-18.83-17.51,0-6.28,6.12-10.58,13.67-10.58,4.35,0,8.1,1.06,10.73,2.68Z"/></g></g><g><path class="cls-4" d="m6.42,69.05c.24.31.36.7.36,1.16,0,.65-.25,1.15-.76,1.49-.5.35-1.24.52-2.2.52H0v-7.39h3.61c.9,0,1.59.17,2.07.52.48.34.72.81.72,1.4,0,.36-.09.68-.26.96-.17.28-.41.5-.72.67.42.13.75.36.99.67Zm-4.72-2.93v1.74h1.7c.42,0,.74-.07.96-.22.22-.15.33-.37.33-.65s-.11-.51-.33-.65c-.22-.14-.54-.22-.96-.22h-1.7Zm3.01,4.59c.23-.15.34-.38.34-.69,0-.61-.45-.92-1.36-.92h-2v1.83h2c.45,0,.79-.07,1.02-.22Z"/><path class="cls-4" d="m13.19,70.64h-3.43l-.65,1.58h-1.75l3.29-7.39h1.69l3.3,7.39h-1.8l-.65-1.58Zm-.54-1.3l-1.17-2.83-1.17,2.83h2.34Z"/><path class="cls-4" d="m23.51,64.83v7.39h-1.4l-3.68-4.49v4.49h-1.69v-7.39h1.41l3.67,4.49v-4.49h1.69Z"/><path class="cls-4" d="m27.05,71.86c-.61-.33-1.09-.78-1.44-1.36-.35-.58-.52-1.24-.52-1.97s.17-1.39.52-1.97c.35-.58.83-1.03,1.44-1.36.61-.33,1.29-.49,2.05-.49.64,0,1.22.11,1.74.34s.95.55,1.3.97l-1.1,1.01c-.5-.58-1.12-.87-1.86-.87-.46,0-.87.1-1.22.3-.36.2-.64.48-.84.84-.2.36-.3.77-.3,1.22s.1.87.3,1.23c.2.36.48.64.84.84.36.2.77.3,1.22.3.74,0,1.36-.29,1.86-.88l1.1,1.01c-.35.43-.79.76-1.31.98-.52.23-1.1.34-1.74.34-.75,0-1.43-.16-2.04-.49Z"/><path class="cls-4" d="m34.88,71.85c-.62-.33-1.1-.79-1.45-1.37-.35-.58-.52-1.23-.52-1.96s.17-1.38.52-1.96c.35-.58.83-1.04,1.45-1.37.62-.33,1.31-.5,2.07-.5s1.46.17,2.07.5c.61.33,1.09.79,1.45,1.37.35.58.53,1.23.53,1.96s-.18,1.38-.53,1.96c-.35.58-.83,1.04-1.45,1.37-.61.33-1.3.5-2.07.5s-1.46-.16-2.07-.5Zm3.26-1.26c.35-.2.63-.48.83-.84.2-.36.3-.77.3-1.23s-.1-.87-.3-1.22c-.2-.36-.48-.64-.83-.84-.35-.2-.75-.3-1.18-.3s-.83.1-1.18.3c-.35.2-.63.48-.83.84-.2.36-.3.77-.3,1.22s.1.87.3,1.23c.2.36.48.64.83.84.35.2.75.3,1.18.3s.83-.1,1.18-.3Z"/><path class="cls-4" d="m52.68,64.83v7.39h-1.4l-3.68-4.49v4.49h-1.69v-7.39h1.41l3.67,4.49v-4.49h1.69Z"/><path class="cls-4" d="m59.62,70.64h-3.43l-.65,1.58h-1.75l3.29-7.39h1.69l3.3,7.39h-1.8l-.65-1.58Zm-.54-1.3l-1.17-2.83-1.17,2.83h2.34Z"/><path class="cls-4" d="m64.31,71.86c-.61-.33-1.09-.78-1.44-1.36-.35-.58-.52-1.24-.52-1.97s.17-1.39.52-1.97c.35-.58.83-1.03,1.44-1.36.61-.33,1.29-.49,2.05-.49.64,0,1.22.11,1.74.34s.95.55,1.3.97l-1.1,1.01c-.5-.58-1.12-.87-1.86-.87-.46,0-.87.1-1.22.3-.36.2-.64.48-.84.84-.2.36-.3.77-.3,1.22s.1.87.3,1.23c.2.36.48.64.84.84.36.2.77.3,1.22.3.74,0,1.36-.29,1.86-.88l1.1,1.01c-.35.43-.79.76-1.31.98-.52.23-1.1.34-1.74.34-.75,0-1.43-.16-2.04-.49Z"/><path class="cls-4" d="m70.76,64.83h1.71v7.39h-1.71v-7.39Z"/><path class="cls-4" d="m76.02,71.85c-.62-.33-1.1-.79-1.45-1.37-.35-.58-.52-1.23-.52-1.96s.17-1.38.52-1.96c.35-.58.83-1.04,1.45-1.37.62-.33,1.31-.5,2.07-.5s1.46.17,2.07.5c.61.33,1.09.79,1.45,1.37.35.58.53,1.23.53,1.96s-.18,1.38-.53,1.96c-.35.58-.83,1.04-1.45,1.37-.61.33-1.3.5-2.07.5s-1.46-.16-2.07-.5Zm3.26-1.26c.35-.2.63-.48.83-.84.2-.36.3-.77.3-1.23s-.1-.87-.3-1.22c-.2-.36-.48-.64-.83-.84-.35-.2-.75-.3-1.18-.3s-.83.1-1.18.3c-.35.2-.63.48-.83.84-.2.36-.3.77-.3,1.22s.1.87.3,1.23c.2.36.48.64.83.84.35.2.75.3,1.18.3s.83-.1,1.18-.3Z"/><path class="cls-4" d="m90.48,64.83v7.39h-1.4l-3.68-4.49v4.49h-1.69v-7.39h1.41l3.67,4.49v-4.49h1.69Z"/><path class="cls-4" d="m97.42,70.64h-3.43l-.65,1.58h-1.75l3.29-7.39h1.69l3.3,7.39h-1.8l-.65-1.58Zm-.54-1.3l-1.17-2.83-1.17,2.83h2.34Z"/><path class="cls-4" d="m100.96,64.83h1.71v6h3.71v1.39h-5.42v-7.39Z"/><path class="cls-4" d="m110.96,64.83h3.36c.8,0,1.51.15,2.13.46.62.31,1.09.74,1.44,1.29.34.56.51,1.2.51,1.94s-.17,1.39-.51,1.94c-.34.56-.82.99-1.44,1.29-.62.31-1.33.46-2.13.46h-3.36v-7.39Zm3.27,5.99c.74,0,1.33-.21,1.77-.62.44-.41.66-.97.66-1.67s-.22-1.26-.66-1.67c-.44-.41-1.03-.62-1.77-.62h-1.56v4.58h1.56Z"/><path class="cls-4" d="m125.68,70.85v1.37h-5.72v-7.39h5.59v1.37h-3.89v1.6h3.43v1.33h-3.43v1.71h4.02Z"/><path class="cls-4" d="m132.17,71.85c-.62-.33-1.1-.79-1.45-1.37-.35-.58-.52-1.23-.52-1.96s.17-1.38.52-1.96c.35-.58.83-1.04,1.45-1.37.62-.33,1.31-.5,2.07-.5s1.46.17,2.07.5c.61.33,1.09.79,1.45,1.37.35.58.53,1.23.53,1.96s-.18,1.38-.53,1.96c-.35.58-.83,1.04-1.45,1.37-.61.33-1.3.5-2.07.5s-1.46-.16-2.07-.5Zm3.26-1.26c.35-.2.63-.48.83-.84.2-.36.3-.77.3-1.23s-.1-.87-.3-1.22c-.2-.36-.48-.64-.83-.84-.35-.2-.75-.3-1.18-.3s-.83.1-1.18.3c-.35.2-.63.48-.83.84-.2.36-.3.77-.3,1.22s.1.87.3,1.23c.2.36.48.64.83.84.35.2.75.3,1.18.3s.83-.1,1.18-.3Z"/><path class="cls-4" d="m146.27,69.05c.24.31.36.7.36,1.16,0,.65-.25,1.15-.76,1.49-.5.35-1.24.52-2.2.52h-3.82v-7.39h3.61c.9,0,1.59.17,2.07.52.48.34.72.81.72,1.4,0,.36-.09.68-.26.96-.17.28-.41.5-.72.67.42.13.75.36.99.67Zm-4.72-2.93v1.74h1.7c.42,0,.74-.07.96-.22.22-.15.33-.37.33-.65s-.11-.51-.33-.65c-.22-.14-.54-.22-.96-.22h-1.7Zm3.01,4.59c.23-.15.34-.38.34-.69,0-.61-.45-.92-1.36-.92h-2v1.83h2c.45,0,.79-.07,1.02-.22Z"/><path class="cls-4" d="m152.95,72.22l-1.43-2.06h-1.57v2.06h-1.71v-7.39h3.2c.65,0,1.22.11,1.71.33.48.22.85.53,1.11.93.26.4.39.88.39,1.43s-.13,1.02-.4,1.42c-.26.4-.64.7-1.12.91l1.66,2.38h-1.84Zm-.43-5.66c-.27-.22-.66-.33-1.17-.33h-1.39v2.58h1.39c.51,0,.9-.11,1.17-.34.27-.23.4-.54.4-.95s-.13-.73-.4-.96Z"/><path class="cls-4" d="m161.46,70.64h-3.43l-.65,1.58h-1.75l3.29-7.39h1.69l3.3,7.39h-1.8l-.65-1.58Zm-.54-1.3l-1.17-2.83-1.17,2.83h2.34Z"/><path class="cls-4" d="m165.91,72.11c-.55-.16-.98-.36-1.31-.62l.58-1.29c.32.23.69.42,1.13.56.44.14.87.21,1.31.21.49,0,.84-.07,1.08-.22.23-.14.35-.34.35-.57,0-.18-.07-.32-.21-.44-.14-.12-.31-.21-.53-.28-.22-.07-.51-.15-.87-.23-.56-.13-1.02-.27-1.38-.4-.36-.13-.67-.35-.92-.64-.26-.3-.39-.69-.39-1.18,0-.43.12-.82.35-1.17.23-.35.58-.62,1.05-.83.47-.2,1.04-.31,1.72-.31.47,0,.93.06,1.38.17.45.11.84.27,1.18.49l-.53,1.3c-.68-.39-1.37-.58-2.05-.58-.48,0-.83.08-1.06.23-.23.15-.34.36-.34.61s.13.44.4.57c.26.12.67.24,1.21.36.56.13,1.02.27,1.38.4.36.13.67.35.92.63.26.29.39.68.39,1.17,0,.42-.12.81-.35,1.16-.24.35-.59.62-1.06.83-.47.2-1.05.31-1.72.31-.58,0-1.15-.08-1.69-.24Z"/><path class="cls-4" d="m179.08,69.6v2.62h-1.71v-2.64l-2.86-4.75h1.82l1.97,3.28,1.97-3.28h1.68l-2.87,4.77Z"/><path class="cls-4" d="m187.02,72.11c-.55-.16-.98-.36-1.31-.62l.58-1.29c.32.23.69.42,1.13.56.44.14.87.21,1.31.21.49,0,.84-.07,1.08-.22.23-.14.35-.34.35-.57,0-.18-.07-.32-.21-.44-.14-.12-.31-.21-.53-.28-.22-.07-.51-.15-.87-.23-.56-.13-1.02-.27-1.38-.4-.36-.13-.67-.35-.92-.64-.26-.3-.39-.69-.39-1.18,0-.43.12-.82.35-1.17.23-.35.58-.62,1.05-.83.47-.2,1.04-.31,1.72-.31.47,0,.93.06,1.38.17.45.11.84.27,1.18.49l-.53,1.3c-.68-.39-1.37-.58-2.05-.58-.48,0-.83.08-1.06.23-.23.15-.34.36-.34.61s.13.44.4.57c.26.12.67.24,1.21.36.56.13,1.02.27,1.38.4.36.13.67.35.92.63.26.29.39.68.39,1.17,0,.42-.12.81-.35,1.16-.24.35-.59.62-1.06.83-.47.2-1.05.31-1.72.31-.58,0-1.15-.08-1.69-.24Z"/><path class="cls-4" d="m199.1,70.85v1.37h-5.72v-7.39h5.59v1.37h-3.89v1.6h3.43v1.33h-3.43v1.71h4.02Z"/><path class="cls-4" d="m205.51,72.22l-1.43-2.06h-1.57v2.06h-1.71v-7.39h3.2c.65,0,1.22.11,1.71.33.48.22.85.53,1.11.93.26.4.39.88.39,1.43s-.13,1.02-.4,1.42c-.26.4-.64.7-1.12.91l1.66,2.38h-1.84Zm-.43-5.66c-.27-.22-.66-.33-1.17-.33h-1.39v2.58h1.39c.51,0,.9-.11,1.17-.34.27-.23.4-.54.4-.95s-.13-.73-.4-.96Z"/><path class="cls-4" d="m215.78,64.83l-3.2,7.39h-1.69l-3.19-7.39h1.85l2.25,5.28,2.28-5.28h1.7Z"/><path class="cls-4" d="m216.88,64.83h1.71v7.39h-1.71v-7.39Z"/><path class="cls-4" d="m222.12,71.86c-.61-.33-1.09-.78-1.44-1.36-.35-.58-.52-1.24-.52-1.97s.17-1.39.52-1.97c.35-.58.83-1.03,1.44-1.36.61-.33,1.29-.49,2.05-.49.64,0,1.22.11,1.74.34s.95.55,1.3.97l-1.1,1.01c-.5-.58-1.12-.87-1.86-.87-.46,0-.87.1-1.22.3-.36.2-.64.48-.84.84-.2.36-.3.77-.3,1.22s.1.87.3,1.23c.2.36.48.64.84.84.36.2.77.3,1.22.3.74,0,1.36-.29,1.86-.88l1.1,1.01c-.35.43-.79.76-1.31.98-.52.23-1.1.34-1.74.34-.75,0-1.43-.16-2.04-.49Z"/><path class="cls-4" d="m228.58,64.83h1.71v7.39h-1.71v-7.39Z"/><path class="cls-4" d="m233.84,71.85c-.62-.33-1.1-.79-1.45-1.37-.35-.58-.52-1.23-.52-1.96s.17-1.38.52-1.96c.35-.58.83-1.04,1.45-1.37.62-.33,1.31-.5,2.07-.5s1.46.17,2.07.5c.61.33,1.09.79,1.45,1.37.35.58.53,1.23.53,1.96s-.18,1.38-.53,1.96c-.35.58-.83,1.04-1.45,1.37-.61.33-1.3.5-2.07.5s-1.46-.16-2.07-.5Zm3.26-1.26c.35-.2.63-.48.83-.84.2-.36.3-.77.3-1.23s-.1-.87-.3-1.22c-.2-.36-.48-.64-.83-.84-.35-.2-.75-.3-1.18-.3s-.83.1-1.18.3c-.35.2-.63.48-.83.84-.2.36-.3.77-.3,1.22s.1.87.3,1.23c.2.36.48.64.83.84.35.2.75.3,1.18.3s.83-.1,1.18-.3Z"/><path class="cls-4" d="m242.24,72.11c-.55-.16-.98-.36-1.31-.62l.58-1.29c.32.23.69.42,1.13.56.44.14.87.21,1.31.21.49,0,.84-.07,1.08-.22.23-.14.35-.34.35-.57,0-.18-.07-.32-.21-.44-.14-.12-.31-.21-.53-.28-.22-.07-.51-.15-.87-.23-.56-.13-1.02-.27-1.38-.4-.36-.13-.67-.35-.92-.64-.26-.3-.39-.69-.39-1.18,0-.43.12-.82.35-1.17.23-.35.58-.62,1.05-.83.47-.2,1.04-.31,1.72-.31.47,0,.93.06,1.38.17.45.11.84.27,1.18.49l-.53,1.3c-.68-.39-1.37-.58-2.05-.58-.48,0-.83.08-1.06.23-.23.15-.34.36-.34.61s.13.44.4.57c.26.12.67.24,1.21.36.56.13,1.02.27,1.38.4.36.13.67.35.92.63.26.29.39.68.39,1.17,0,.42-.12.81-.35,1.16-.24.35-.59.62-1.06.83-.47.2-1.05.31-1.72.31-.58,0-1.15-.08-1.69-.24Z"/><path class="cls-4" d="m256.76,65.16c.48.22.85.53,1.11.93.26.4.39.88.39,1.43s-.13,1.02-.39,1.42c-.26.4-.63.71-1.11.93-.48.21-1.05.32-1.71.32h-1.49v2.04h-1.71v-7.39h3.2c.65,0,1.22.11,1.71.33Zm-.63,3.3c.27-.22.4-.54.4-.94s-.13-.73-.4-.96c-.27-.22-.66-.33-1.17-.33h-1.39v2.57h1.39c.51,0,.9-.11,1.17-.33Z"/><path class="cls-4" d="m260.52,71.47c-.59-.58-.88-1.42-.88-2.5v-4.14h1.71v4.08c0,1.32.55,1.99,1.65,1.99.53,0,.94-.16,1.22-.48.28-.32.42-.82.42-1.5v-4.08h1.69v4.14c0,1.08-.29,1.92-.88,2.5-.59.58-1.41.88-2.47.88s-1.88-.29-2.47-.88Zm2.94-8.76h1.77l-1.91,1.52h-1.29l1.43-1.52Z"/><path class="cls-4" d="m274.72,69.05c.24.31.36.7.36,1.16,0,.65-.25,1.15-.76,1.49-.5.35-1.24.52-2.2.52h-3.82v-7.39h3.61c.9,0,1.59.17,2.07.52.48.34.72.81.72,1.4,0,.36-.09.68-.26.96-.17.28-.41.5-.72.67.42.13.75.36.99.67Zm-4.72-2.93v1.74h1.7c.42,0,.74-.07.96-.22.22-.15.33-.37.33-.65s-.11-.51-.33-.65c-.22-.14-.54-.22-.96-.22h-1.7Zm3.01,4.59c.23-.15.34-.38.34-.69,0-.61-.45-.92-1.36-.92h-2v1.83h2c.45,0,.79-.07,1.02-.22Z"/><path class="cls-4" d="m276.69,64.83h1.71v6h3.71v1.39h-5.42v-7.39Z"/><path class="cls-4" d="m283.29,64.83h1.71v7.39h-1.71v-7.39Z"/><path class="cls-4" d="m288.53,71.86c-.61-.33-1.09-.78-1.44-1.36-.35-.58-.52-1.24-.52-1.97s.17-1.39.52-1.97c.35-.58.83-1.03,1.44-1.36.61-.33,1.29-.49,2.05-.49.64,0,1.22.11,1.74.34s.95.55,1.3.97l-1.1,1.01c-.5-.58-1.12-.87-1.86-.87-.46,0-.87.1-1.22.3-.36.2-.64.48-.84.84-.2.36-.3.77-.3,1.22s.1.87.3,1.23c.2.36.48.64.84.84.36.2.77.3,1.22.3.74,0,1.36-.29,1.86-.88l1.1,1.01c-.35.43-.79.76-1.31.98-.52.23-1.1.34-1.74.34-.75,0-1.43-.16-2.04-.49Z"/><path class="cls-4" d="m296.36,71.85c-.62-.33-1.1-.79-1.45-1.37-.35-.58-.52-1.23-.52-1.96s.17-1.38.52-1.96c.35-.58.83-1.04,1.45-1.37.62-.33,1.31-.5,2.07-.5s1.46.17,2.07.5c.61.33,1.09.79,1.45,1.37.35.58.53,1.23.53,1.96s-.18,1.38-.53,1.96c-.35.58-.83,1.04-1.45,1.37-.61.33-1.3.5-2.07.5s-1.46-.16-2.07-.5Zm3.26-1.26c.35-.2.63-.48.83-.84.2-.36.3-.77.3-1.23s-.1-.87-.3-1.22c-.2-.36-.48-.64-.83-.84-.35-.2-.75-.3-1.18-.3s-.83.1-1.18.3c-.35.2-.63.48-.83.84-.2.36-.3.77-.3,1.22s.1.87.3,1.23c.2.36.48.64.83.84.35.2.75.3,1.18.3s.83-.1,1.18-.3Z"/><path class="cls-4" d="m304.77,72.11c-.55-.16-.98-.36-1.31-.62l.58-1.29c.32.23.69.42,1.13.56.44.14.87.21,1.31.21.49,0,.84-.07,1.08-.22.23-.14.35-.34.35-.57,0-.18-.07-.32-.21-.44-.14-.12-.31-.21-.53-.28-.22-.07-.51-.15-.87-.23-.56-.13-1.02-.27-1.38-.4-.36-.13-.67-.35-.92-.64-.26-.3-.39-.69-.39-1.18,0-.43.12-.82.35-1.17.23-.35.58-.62,1.05-.83.47-.2,1.04-.31,1.72-.31.47,0,.93.06,1.38.17.45.11.84.27,1.18.49l-.53,1.3c-.68-.39-1.37-.58-2.05-.58-.48,0-.83.08-1.06.23-.23.15-.34.36-.34.61s.13.44.4.57c.26.12.67.24,1.21.36.56.13,1.02.27,1.38.4.36.13.67.35.92.63.26.29.39.68.39,1.17,0,.42-.12.81-.35,1.16-.24.35-.59.62-1.06.83-.47.2-1.05.31-1.72.31-.58,0-1.15-.08-1.69-.24Z"/><path class="cls-4" d="m315.12,72.11c-.55-.16-.98-.36-1.31-.62l.58-1.29c.32.23.69.42,1.13.56.44.14.87.21,1.31.21.49,0,.84-.07,1.08-.22.23-.14.35-.34.35-.57,0-.18-.07-.32-.21-.44-.14-.12-.31-.21-.53-.28-.22-.07-.51-.15-.87-.23-.56-.13-1.02-.27-1.38-.4-.36-.13-.67-.35-.92-.64-.26-.3-.39-.69-.39-1.18,0-.43.12-.82.35-1.17.23-.35.58-.62,1.05-.83.47-.2,1.04-.31,1.72-.31.47,0,.93.06,1.38.17.45.11.84.27,1.18.49l-.53,1.3c-.68-.39-1.37-.58-2.05-.58-.48,0-.83.08-1.06.23-.23.15-.34.36-.34.61s.13.44.4.57c.26.12.67.24,1.21.36.56.13,1.02.27,1.38.4.36.13.67.35.92.63.26.29.39.68.39,1.17,0,.42-.12.81-.35,1.16-.24.35-.59.62-1.06.83-.47.2-1.05.31-1.72.31-.58,0-1.15-.08-1.69-.24Z"/><path class="cls-4" d="m321.45,72.01c-.2-.2-.3-.44-.3-.74s.1-.55.3-.73c.2-.19.44-.28.73-.28s.53.09.73.28c.2.19.3.43.3.73s-.1.54-.3.74-.44.3-.73.3-.53-.1-.73-.3Z"/><path class="cls-4" d="m331.69,64.83v7.39h-1.4l-3.68-4.49v4.49h-1.69v-7.39h1.41l3.67,4.49v-4.49h1.69Z"/><path class="cls-4" d="m333.7,72.01c-.2-.2-.3-.44-.3-.74s.1-.55.3-.73c.2-.19.44-.28.73-.28s.53.09.73.28c.2.19.3.43.3.73s-.1.54-.3.74-.44.3-.73.3-.53-.1-.73-.3Z"/><path class="cls-4" d="m338.34,71.86c-.61-.33-1.09-.78-1.44-1.36-.35-.58-.52-1.24-.52-1.97s.17-1.39.52-1.97c.35-.58.83-1.03,1.44-1.36.61-.33,1.29-.49,2.05-.49.64,0,1.22.11,1.74.34s.95.55,1.3.97l-1.1,1.01c-.5-.58-1.12-.87-1.86-.87-.46,0-.87.1-1.22.3-.36.2-.64.48-.84.84-.2.36-.3.77-.3,1.22s.1.87.3,1.23c.2.36.48.64.84.84.36.2.77.3,1.22.3.74,0,1.36-.29,1.86-.88l1.1,1.01c-.35.43-.79.76-1.31.98-.52.23-1.1.34-1.74.34-.75,0-1.43-.16-2.04-.49Z"/></g></g></g></svg>