<svg xmlns="http://www.w3.org/2000/svg" xmlns:xlink="http://www.w3.org/1999/xlink" id="Layer_2" data-name="Layer 2" viewBox="0 0 1849.82 149.16"><defs><style>      .cls-1 {        fill: url(#linear-gradient);      }      .cls-1, .cls-2, .cls-3, .cls-4, .cls-5, .cls-6, .cls-7, .cls-8, .cls-9, .cls-10, .cls-11, .cls-12, .cls-13 {        stroke-width: 0px;      }      .cls-2 {        fill: #bcbec0;        opacity: .5;      }      .cls-3 {        fill: url(#linear-gradient-2);      }      .cls-5 {        fill: #777d79;      }      .cls-6 {        fill: #2a9131;      }      .cls-7 {        fill: #9aa29d;      }      .cls-8 {        fill: #535754;      }      .cls-9 {        fill: #858c87;      }      .cls-10 {        fill: #333;      }      .cls-11 {        fill: #f0f3f5;      }      .cls-12 {        fill: #f23946;      }      .cls-13 {        fill: #676767;      }    </style><linearGradient id="linear-gradient" x1="23.92" y1="36.37" x2="186.78" y2="36.37" gradientTransform="translate(1871.41) rotate(-180) scale(1 -1)" gradientUnits="userSpaceOnUse"><stop offset="0" stop-color="#605d5e"></stop><stop offset="1" stop-color="#000"></stop></linearGradient><linearGradient id="linear-gradient-2" x1="1084.68" y1="36.38" x2="1247.53" y2="36.38" gradientTransform="translate(-1082.34)" xlink:href="#linear-gradient"></linearGradient></defs><g id="Layer_2-2" data-name="Layer 2"><g><rect class="cls-8" x="474.87" y="13.96" width="970.66" height="113.12"></rect><g><g><g><circle class="cls-10" cx="744.13" cy="131.97" r="16.67"></circle><circle class="cls-10" cx="785.15" cy="131.97" r="16.67"></circle></g><g><circle class="cls-13" cx="744.59" cy="132.49" r="16.67"></circle><circle class="cls-4" cx="744.59" cy="132.49" r="12.68"></circle></g><g><circle class="cls-13" cx="785.61" cy="132.49" r="16.67"></circle><circle class="cls-4" cx="785.61" cy="132.49" r="12.68"></circle></g><path class="cls-5" d="m783.3,133.76h-35.9l-12.18-20.65h60.12l-12.04,20.65Z"></path><path class="cls-9" d="m784.15,134.74h-37.6l-12.76-21.63h62.96l-12.61,21.63Zm-33.82-6.02h30.02v-3.23h-30.02s0,3.23,0,3.23h0Zm-.02-5.32l30,.03v-3.25h-30v3.21h0Zm-.02-5.29h30.02v-3.19l-30.02-.02v3.21h0Zm-3.98-2.77l-4.86-.03.02,5.26,4.86.05m37.93-.04l4.87.05-.02-5.29-4.88-.03.02,5.27h0Z"></path><path class="cls-8" d="m786.14,137.01h-41.54l-14.1-23.9h69.57l-13.93,23.9Zm-37.37-6.65h33.17v-3.57h-33.17s0,3.57,0,3.57h0Zm-.02-5.87l33.15.04v-3.59h-33.15v3.55h0Zm-.02-5.84h33.17v-3.53l-33.17-.03v3.55h0Zm-4.4-3.06l-5.37-.04.02,5.81,5.37.05m41.92-.05l5.39.06-.02-5.85-5.39-.04.02,5.83h0Z"></path><g><circle class="cls-4" cx="744.97" cy="132.33" r="2.62"></circle><circle class="cls-4" cx="785.61" cy="132.33" r="2.62"></circle></g><g><circle class="cls-10" cx="744.97" cy="132.49" r="2.62"></circle><circle class="cls-10" cx="785.61" cy="132.49" r="2.62"></circle></g></g><g><g><circle class="cls-10" cx="1067.28" cy="131.97" r="16.67"></circle><circle class="cls-10" cx="1108.29" cy="131.97" r="16.67"></circle></g><g><circle class="cls-13" cx="1067.74" cy="132.49" r="16.67"></circle><circle class="cls-4" cx="1067.74" cy="132.49" r="12.68"></circle></g><g><circle class="cls-13" cx="1108.75" cy="132.49" r="16.67"></circle><circle class="cls-4" cx="1108.75" cy="132.49" r="12.68"></circle></g><path class="cls-5" d="m1106.45,133.76h-35.9l-12.18-20.65h60.12l-12.04,20.65Z"></path><path class="cls-9" d="m1107.3,134.74h-37.6l-12.76-21.63h62.96l-12.61,21.63Zm-33.82-6.02h30.02v-3.23h-30.02s0,3.23,0,3.23h0Zm-.02-5.32l30,.03v-3.25h-30v3.21h0Zm-.02-5.29h30.02v-3.19l-30.02-.02v3.21h0Zm-3.98-2.77l-4.86-.03.02,5.26,4.86.05m37.93-.04l4.87.05-.02-5.29-4.88-.03.02,5.27h0Z"></path><path class="cls-8" d="m1109.28,137.01h-41.54l-14.1-23.9h69.57l-13.93,23.9Zm-37.37-6.65h33.17v-3.57h-33.17s0,3.57,0,3.57h0Zm-.02-5.87l33.15.04v-3.59h-33.15v3.55h0Zm-.02-5.84h33.17v-3.53l-33.17-.03v3.55h0Zm-4.4-3.06l-5.37-.04.02,5.81,5.37.05m41.92-.05l5.39.06-.02-5.85-5.39-.04.02,5.83h0Z"></path><g><circle class="cls-4" cx="1068.12" cy="132.33" r="2.62"></circle><circle class="cls-4" cx="1108.75" cy="132.33" r="2.62"></circle></g><g><circle class="cls-10" cx="1068.12" cy="132.49" r="2.62"></circle><circle class="cls-10" cx="1108.75" cy="132.49" r="2.62"></circle></g></g><rect class="cls-12" x="696.08" y=".1" width="457.66" height="8.09"></rect><rect class="cls-11" x="696.08" y="8.19" width="457.66" height="108.56"></rect><rect class="cls-4" x="696.08" y="29.38" width="457.66" height="33.09"></rect><rect class="cls-6" x="696.08" y="92.41" width="457.66" height="12.9"></rect><polygon class="cls-6" points="1153.74 21.54 696.08 22.81 696.08 18.71 1153.74 18.71 1153.74 21.54"></polygon><path class="cls-7" d="m696.08,116.74v20.11h34.06c6.65,0,7.96-6.78,13.08-7.66h47.74c4.79.88,6.41,7.66,13.08,7.66h248.21c6.67,0,8.29-6.78,13.08-7.66h46.11c5.11.88,6.43,7.66,13.08,7.66h29.24v-20.11h-457.66Z"></path><rect class="cls-4" x="696.08" y="74.79" width="457.66" height="2"></rect><g><line class="cls-2" x1="783.24" y1="62.47" x2="872.99" y2="29.32"></line><path class="cls-2" d="m809.52,29.28l-85.93,31.73c4.09.9,9.08,1.45,14.51,1.45h18.16s89.86-33.18,89.86-33.18h-36.6Z"></path></g><g><line class="cls-2" x1="1038.58" y1="62.47" x2="1128.34" y2="29.32"></line><path class="cls-2" d="m1064.87,29.28l-85.93,31.73c4.09.9,9.08,1.45,14.51,1.45h18.16s89.86-33.18,89.86-33.18h-36.6Z"></path></g></g><g><g><g><circle class="cls-10" cx="1687.1" cy="131.97" r="16.67"></circle><circle class="cls-10" cx="1646.09" cy="131.97" r="16.67"></circle></g><g><circle class="cls-13" cx="1686.64" cy="132.49" r="16.67"></circle><circle class="cls-4" cx="1686.64" cy="132.49" r="12.68"></circle></g><g><circle class="cls-13" cx="1645.63" cy="132.49" r="16.67"></circle><circle class="cls-4" cx="1645.63" cy="132.49" r="12.68"></circle></g><path class="cls-5" d="m1635.89,113.11h60.12s-12.18,20.65-12.18,20.65h-35.9s-12.04-20.65-12.04-20.65Z"></path><path class="cls-9" d="m1634.47,113.11h62.96s-12.76,21.63-12.76,21.63h-37.6s-12.61-21.63-12.61-21.63Zm46.43,15.61v-3.24s-30.02,0-30.02,0v3.23s30.02,0,30.02,0h0Zm.02-5.32v-3.21s-30,0-30,0v3.25s30-.03,30-.03h0Zm.02-5.29v-3.21s-30.02.02-30.02.02v3.19s30.02,0,30.02,0h0Zm3.96,2.5l4.86-.05.02-5.26-4.86.03m-37.95,5.23l.02-5.27-4.88.03-.02,5.29,4.87-.05h0Z"></path><path class="cls-8" d="m1631.17,113.11h69.57s-14.1,23.9-14.1,23.9h-41.54s-13.93-23.9-13.93-23.9Zm51.31,17.25v-3.58s-33.17,0-33.17,0v3.57s33.17,0,33.17,0h0Zm.02-5.87v-3.55s-33.15,0-33.15,0v3.59s33.15-.04,33.15-.04h0Zm.02-5.84v-3.55s-33.17.03-33.17.03v3.53s33.17,0,33.17,0h0Zm4.37,2.77l5.37-.05.02-5.81-5.37.04m-41.94,5.78l.02-5.83-5.39.04-.02,5.85,5.39-.06h0Z"></path><g><circle class="cls-4" cx="1686.26" cy="132.33" r="2.62"></circle><circle class="cls-4" cx="1645.63" cy="132.33" r="2.62"></circle></g><g><circle class="cls-10" cx="1686.26" cy="132.49" r="2.62"></circle><circle class="cls-10" cx="1645.63" cy="132.49" r="2.62"></circle></g></g><g><g><circle class="cls-10" cx="1253.33" cy="131.97" r="16.67"></circle><circle class="cls-10" cx="1212.31" cy="131.97" r="16.67"></circle></g><g><circle class="cls-13" cx="1252.87" cy="132.49" r="16.67"></circle><circle class="cls-4" cx="1252.87" cy="132.49" r="12.68"></circle></g><g><circle class="cls-13" cx="1211.85" cy="132.49" r="16.67"></circle><circle class="cls-4" cx="1211.85" cy="132.49" r="12.68"></circle></g><path class="cls-5" d="m1202.12,113.11h60.12s-12.18,20.65-12.18,20.65h-35.9s-12.04-20.65-12.04-20.65Z"></path><path class="cls-9" d="m1200.7,113.11h62.96s-12.76,21.63-12.76,21.63h-37.6s-12.61-21.63-12.61-21.63Zm46.43,15.61v-3.24s-30.02,0-30.02,0v3.23s30.02,0,30.02,0h0Zm.02-5.32v-3.21s-30,0-30,0v3.25s30-.03,30-.03h0Zm.02-5.29v-3.21s-30.02.02-30.02.02v3.19s30.02,0,30.02,0h0Zm3.96,2.5l4.86-.05.02-5.26-4.86.03m-37.95,5.23l.02-5.27-4.88.03-.02,5.29,4.87-.05h0Z"></path><path class="cls-8" d="m1197.39,113.11h69.57s-14.1,23.9-14.1,23.9h-41.54s-13.93-23.9-13.93-23.9Zm51.31,17.25v-3.58s-33.17,0-33.17,0v3.57s33.17,0,33.17,0h0Zm.02-5.87v-3.55s-33.15,0-33.15,0v3.59s33.15-.04,33.15-.04h0Zm.02-5.84v-3.55s-33.17.03-33.17.03v3.53s33.17,0,33.17,0h0Zm4.37,2.77l5.37-.05.02-5.81-5.37.04m-41.94,5.78l.02-5.83-5.39.04-.02,5.85,5.39-.06h0Z"></path><g><circle class="cls-4" cx="1252.49" cy="132.33" r="2.62"></circle><circle class="cls-4" cx="1211.85" cy="132.33" r="2.62"></circle></g><g><circle class="cls-10" cx="1252.49" cy="132.49" r="2.62"></circle><circle class="cls-10" cx="1211.85" cy="132.49" r="2.62"></circle></g></g><path class="cls-7" d="m1745.56,116.74h-587.1s0,20.11,0,20.11h32.97c7.5,0,8.98-7.65,14.75-8.63h51.99c5.4.99,7.22,8.63,14.75,8.63h350.91c7.52,0,9.35-7.65,14.75-8.63h53.83c5.77.99,7.25,8.63,14.75,8.63h38.41c51.55,0,76.72-11.11,94.86-29.92-18.97,11.55-67.1,9.81-94.86,9.81Z"></path><path class="cls-11" d="m1745.56,116.74h-587.09V8.19h566.12c13.85,0,27.58,2.65,40.43,7.82l63.94,38.05c33.19,13.34,23.65,62.69-12.12,62.69h-71.27Z"></path><path class="cls-6" d="m1762.39,92.41h-603.92s0,12.9,0,12.9h607c2.47,0,4.89-.65,7.02-1.89l8.3-4.82c11.6-6.74,10.94-23.72-1.15-29.54l-96-47.05c-4.42-2.16-9.27-3.29-14.19-3.29h-510.98s0,4.1,0,4.1h507.8c5.44,0,10.79,1.38,15.55,4l87.1,47.97c6.15,3.39,6.02,12.27-.23,15.48l-2.3,1.18c-1.24.63-2.61.96-4,.96Z"></path><path class="cls-1" d="m1847.48,72.75c-5.35-2.98-69.63-42.93-103.67-59.22-18.48-8.84-38.69-13.43-59.18-13.43,5.97-.8,52.24,3.03,80.39,15.91,23.53,10.76,82.46,42.24,82.46,56.74Z"></path><path class="cls-12" d="m1742.33,12.74c-17.39-8.32-36.42-12.64-55.69-12.64h-528.17s0,8.09,0,8.09h519.07c17.2,0,34.09,4.59,48.92,13.31,36.48,21.44,106.44,61.24,122.91,61.24,1.62-5.75-1.03-11.46-8.94-15.86-5.44-3.02-64.17-37.91-98.1-54.14Z"></path><g><path class="cls-4" d="m1158.47,62.47h555.09c3.99,0,5.4-5.29,1.94-7.27l-38.35-21.97c-4.4-2.52-9.37-3.84-14.44-3.84h-504.24s0,33.09,0,33.09Z"></path><path class="cls-4" d="m1713.56,56.71c1.35,0,1.74,1.08,1.83,1.41.09.33.28,1.46-.89,2.13l-21.53,12.73c-2.01,1.19-4.31,1.82-6.65,1.82h-527.85s0,2,0,2h527.85c2.7,0,5.34-.72,7.67-2.1l21.51-12.72c3.46-1.98,2.05-7.27-1.94-7.27"></path><g><line class="cls-2" x1="1218.12" y1="62.47" x2="1307.87" y2="29.32"></line><path class="cls-2" d="m1244.4,29.28l-85.93,31.73c4.09.9,9.08,1.45,14.51,1.45h18.16s89.86-33.18,89.86-33.18h-36.6Z"></path></g><g><line class="cls-2" x1="1385.23" y1="62.47" x2="1474.98" y2="29.32"></line><path class="cls-2" d="m1411.51,29.28l-85.93,31.73c4.09.9,9.08,1.45,14.51,1.45h18.16s89.86-33.18,89.86-33.18h-36.6Z"></path></g><g><line class="cls-2" x1="1552.33" y1="62.47" x2="1642.09" y2="29.32"></line><path class="cls-2" d="m1578.62,29.28l-85.93,31.73c4.09.9,9.08,1.45,14.51,1.45h18.16s89.86-33.18,89.86-33.18h-36.6Z"></path></g></g></g><g><g><g><circle class="cls-10" cx="162.72" cy="131.98" r="16.67"></circle><circle class="cls-10" cx="203.74" cy="131.98" r="16.67"></circle></g><g><circle class="cls-13" cx="163.18" cy="132.5" r="16.67"></circle><circle class="cls-4" cx="163.18" cy="132.5" r="12.68"></circle></g><g><path class="cls-13" d="m220.86,132.5c0,9.2-7.46,16.67-16.67,16.67-9.2,0-16.67-7.46-16.67-16.67,0-9.2,7.46-16.67,16.67-16.67,9.2,0,16.67,7.46,16.67,16.67Z"></path><circle class="cls-4" cx="204.2" cy="132.5" r="12.68"></circle></g><path class="cls-5" d="m201.89,133.77h-35.9s-12.18-20.65-12.18-20.65h60.12l-12.04,20.65Z"></path><path class="cls-9" d="m202.74,134.75h-37.6l-12.76-21.63h62.96l-12.61,21.63Zm-33.82-6.02h30.02v-3.23h-30.02s0,3.23,0,3.23h0Zm-.02-5.32l30,.03v-3.25s-30,0-30,0v3.21h0Zm-.02-5.29h30.02v-3.19s-30.02-.02-30.02-.02v3.21h0Zm-3.98-2.77l-4.86-.03.02,5.26,4.86.05m37.93-.04l4.87.05-.02-5.29-4.88-.03.02,5.27h0Z"></path><path class="cls-8" d="m204.72,137.02h-41.54l-14.1-23.9h69.57l-13.93,23.9Zm-37.37-6.65h33.17v-3.57h-33.17s0,3.57,0,3.57h0Zm-.02-5.87l33.15.04v-3.59s-33.15,0-33.15,0v3.55h0Zm-.02-5.84h33.17v-3.53s-33.17-.03-33.17-.03v3.55h0Zm-4.4-3.06l-5.37-.04.02,5.81,5.37.05m41.92-.05l5.39.06-.02-5.85-5.39-.04.02,5.83h0Z"></path><g><circle class="cls-4" cx="163.56" cy="132.34" r="2.62"></circle><circle class="cls-4" cx="204.2" cy="132.34" r="2.62"></circle></g><g><circle class="cls-10" cx="163.56" cy="132.5" r="2.62"></circle><circle class="cls-10" cx="204.2" cy="132.5" r="2.62"></circle></g></g><g><g><circle class="cls-10" cx="596.5" cy="131.98" r="16.67"></circle><path class="cls-10" d="m654.18,131.98c0,9.2-7.46,16.67-16.67,16.67-9.2,0-16.67-7.46-16.67-16.67s7.46-16.67,16.67-16.67,16.67,7.46,16.67,16.67Z"></path></g><g><path class="cls-13" d="m613.62,132.5c0,9.2-7.46,16.67-16.67,16.67-9.2,0-16.67-7.46-16.67-16.67,0-9.2,7.46-16.67,16.67-16.67,9.2,0,16.67,7.46,16.67,16.67Z"></path><path class="cls-4" d="m609.64,132.5c0,7-5.68,12.68-12.68,12.68-7,0-12.68-5.68-12.68-12.68s5.68-12.68,12.68-12.68c7,0,12.68,5.68,12.68,12.68Z"></path></g><g><circle class="cls-13" cx="637.97" cy="132.5" r="16.67"></circle><circle class="cls-4" cx="637.97" cy="132.5" r="12.68"></circle></g><path class="cls-5" d="m635.67,133.77h-35.9l-12.18-20.65h60.12l-12.04,20.65Z"></path><path class="cls-9" d="m636.52,134.75h-37.6l-12.76-21.63h62.96l-12.61,21.63Zm-33.82-6.02h30.02v-3.23h-30.02s0,3.23,0,3.23h0Zm-.02-5.32l30,.03v-3.25h-30v3.21h0Zm-.02-5.29h30.02v-3.19l-30.02-.02v3.21h0Zm-3.98-2.77l-4.86-.03.02,5.26,4.86.05m37.93-.04l4.87.05-.02-5.29-4.88-.03.02,5.27h0Z"></path><path class="cls-8" d="m638.5,137.02h-41.54s-14.1-23.9-14.1-23.9h69.57l-13.93,23.9Zm-37.37-6.65h33.17v-3.57h-33.17s0,3.57,0,3.57h0Zm-.02-5.87l33.15.04v-3.59s-33.15,0-33.15,0v3.55h0Zm-.02-5.84h33.17v-3.53l-33.17-.03v3.55h0Zm-4.4-3.06l-5.37-.04.02,5.81,5.37.05m41.92-.05l5.39.06-.02-5.85-5.39-.04.02,5.83h0Z"></path><g><circle class="cls-4" cx="597.34" cy="132.34" r="2.62"></circle><circle class="cls-4" cx="637.97" cy="132.34" r="2.62"></circle></g><g><circle class="cls-10" cx="597.34" cy="132.5" r="2.62"></circle><circle class="cls-10" cx="637.97" cy="132.5" r="2.62"></circle></g></g><path class="cls-7" d="m104.26,116.75h587.1s0,20.11,0,20.11h-32.97c-7.5,0-8.98-7.65-14.75-8.63h-51.99c-5.4.99-7.22,8.63-14.75,8.63H225.99c-7.52,0-9.35-7.65-14.75-8.63h-53.83c-5.77.99-7.25,8.63-14.75,8.63h-38.41c-51.55,0-76.72-11.11-94.86-29.92,18.97,11.55,67.1,9.81,94.86,9.81Z"></path><path class="cls-11" d="m104.26,116.75h587.09V8.2H125.23c-13.85,0-27.58,2.65-40.43,7.82L20.86,54.07c-33.19,13.34-23.65,62.69,12.12,62.69h71.27Z"></path><path class="cls-6" d="m87.44,92.41h603.92v12.9H84.35c-2.47,0-4.89-.65-7.02-1.89l-8.3-4.82c-11.6-6.74-10.94-23.72,1.15-29.54l96-47.05c4.42-2.16,9.27-3.29,14.19-3.29h510.98v4.1H183.56c-5.44,0-10.79,1.38-15.55,4l-87.1,47.97c-6.15,3.39-6.02,12.27.23,15.48l2.3,1.18c1.24.63,2.61.96,4,.96Z"></path><path class="cls-3" d="m2.34,72.75c5.35-2.98,69.63-42.93,103.67-59.22C124.49,4.69,144.71.11,165.19.11c-5.97-.8-52.24,3.03-80.39,15.91C61.27,26.78,2.34,58.25,2.34,72.75Z"></path><path class="cls-12" d="m107.49,12.74C124.88,4.42,143.91.11,163.18.11h528.17v8.09s-519.07,0-519.07,0c-17.2,0-34.09,4.59-48.92,13.31C86.88,42.94,16.93,82.75.45,82.75c-1.62-5.75,1.03-11.46,8.94-15.86,5.44-3.02,64.17-37.91,98.1-54.14Z"></path><g><path class="cls-4" d="m691.35,62.47H136.26c-3.99,0-5.4-5.29-1.94-7.27l38.35-21.97c4.4-2.52,9.37-3.84,14.44-3.84h504.24v33.09Z"></path><g><line class="cls-2" x1="267.38" y1="62.47" x2="357.14" y2="29.33"></line><path class="cls-2" d="m293.66,29.29l-85.93,31.73c4.09.9,9.08,1.45,14.51,1.45h18.16s89.86-33.18,89.86-33.18h-36.6Z"></path></g><g><line class="cls-2" x1="434.49" y1="62.47" x2="524.25" y2="29.33"></line><path class="cls-2" d="m460.77,29.29l-85.93,31.73c4.09.9,9.08,1.45,14.51,1.45h18.16s89.86-33.18,89.86-33.18h-36.6Z"></path></g><g><line class="cls-2" x1="601.6" y1="62.47" x2="691.35" y2="29.33"></line><path class="cls-2" d="m627.88,29.29l-85.93,31.73c4.09.9,9.08,1.45,14.51,1.45h18.16s89.86-33.18,89.86-33.18h-36.6Z"></path></g><path class="cls-4" d="m136.26,54.72c-3.99,0-5.4,5.29-1.94,7.27l21.51,12.72c2.32,1.37,4.97,2.1,7.67,2.1h527.85v-2H163.51c-2.34,0-4.64-.63-6.65-1.82l-21.53-12.73c-1.17-.67-.98-1.8-.89-2.13.09-.33.48-1.41,1.83-1.41"></path></g></g></g></g></svg>