<svg xmlns="http://www.w3.org/2000/svg" width="250" height="838" viewBox="0 0 250 838" fill="none"><g><path d="M5.70001 37.5H244.3V71.6H5.70001V37.5Z" fill="#F5EDED"></path><path d="M238.6 43.2V65.9H11.4V43.2H238.6ZM250 31.8H0V77.3H250V31.8Z" fill="#B87B79"></path><path d="M5.70001 105.7H244.3V139.8H5.70001V105.7Z" fill="#F5EDED"></path><path d="M238.6 111.4V134.1H11.4V111.4H238.6ZM250 100H0V145.5H250V100Z" fill="#B87B79"></path><path d="M5.70001 173.9H244.3V208H5.70001V173.9Z" fill="#F5EDED"></path><path d="M238.6 179.5V202.2H11.4V179.5H238.6ZM250 168.2H0V213.7H250V168.2Z" fill="#B87B79"></path><path d="M5.70001 242H244.3V276.1H5.70001V242Z" fill="#F5EDED"></path><path d="M238.6 247.7V270.4H11.4V247.7H238.6ZM250 236.4H0V281.9H250V236.4Z" fill="#B87B79"></path><path d="M5.70001 310.2H244.3V344.3H5.70001V310.2Z" fill="#F5EDED"></path><path d="M238.6 315.9V338.6H11.4V315.9H238.6ZM250 304.5H0V350H250V304.5Z" fill="#B87B79"></path><path d="M5.70001 378.4H244.3V412.5H5.70001V378.4Z" fill="#F5EDED"></path><path d="M238.6 384.1V406.8H11.4V384.1H238.6ZM250 372.7H0V418.2H250V372.7Z" fill="#B87B79"></path><path d="M5.70001 446.6H244.3V480.7H5.70001V446.6Z" fill="#F5EDED"></path><path d="M238.6 452.3V475H11.4V452.3H238.6ZM250 440.9H0V486.4H250V440.9Z" fill="#B87B79"></path><path d="M5.70001 514.8H244.3V548.9H5.70001V514.8Z" fill="#F5EDED"></path><path d="M238.6 520.5V543.2H11.4V520.5H238.6ZM250 509.1H0V554.6H250V509.1Z" fill="#B87B79"></path><path d="M5.70001 583H244.3V617H5.70001V583Z" fill="#F5EDED"></path><path d="M238.6 588.6V611.3H11.4V588.6H238.6ZM250 577.3H0V622.8H250V577.3Z" fill="#B87B79"></path><path d="M5.70001 651.1H244.3V685.2H5.70001V651.1Z" fill="#F5EDED"></path><path d="M238.6 656.8V679.5H11.4V656.8H238.6ZM250 645.5H0V691H250V645.5Z" fill="#B87B79"></path><path d="M5.70001 719.3H244.3V753.4H5.70001V719.3Z" fill="#F5EDED"></path><path d="M238.6 725V747.7H11.4V725H238.6ZM250 713.6H0V759.1H250V713.6Z" fill="#B87B79"></path><path d="M5.70001 787.5H244.3V821.6H5.70001V787.5Z" fill="#F5EDED"></path><path d="M238.6 793.2V815.9H11.4V793.2H238.6ZM250 781.8H0V827.3H250V781.8Z" fill="#B87B79"></path><path d="M39.8 0H73.9V1200H39.8V0Z" fill="#F5EDED"></path><path d="M45.5 1200V0H34.1V1200H45.5ZM79.5 1200V0H68.2V1200H79.5Z" fill="#B87B79"></path><path d="M176.1 0H210.2V1200H176.1V0Z" fill="#F5EDED"></path><path d="M181.8 1200V0H170.4V1200H181.8ZM215.9 1200V0H204.5V1200H215.9Z" fill="#B87B79"></path></g></svg>